<svg width="121" height="96" viewBox="0 0 121 96" fill="none" xmlns="http://www.w3.org/2000/svg">
<path d="M80.7814 37.4351C80.8871 37.4087 80.9665 37.336 81.0558 37.2798C83.0161 36.0202 84.9434 34.7078 86.9137 33.4649C87.3203 33.207 87.7335 32.9624 88.16 32.7541C88.16 32.6814 88.1137 32.6979 88.0839 32.6946C87.1517 32.6153 86.2161 32.5987 85.2839 32.6384C84.107 32.688 82.9467 32.85 81.8194 33.207C81.5715 33.2863 81.3334 33.3921 81.1053 33.5177C80.907 33.6268 80.9004 33.7491 81.0657 33.9078C81.1847 34.0268 81.3401 34.0863 81.4954 34.1326C81.588 34.1624 81.6838 34.1822 81.7698 34.2219C81.8855 34.2781 81.8789 34.3706 81.7698 34.4401C81.7004 34.483 81.621 34.4897 81.5483 34.4698C81.1318 34.3574 80.7483 34.1822 80.4904 33.8153C80.1929 33.3921 80.2425 32.9491 80.6194 32.5954C80.7979 32.4301 81.0095 32.3144 81.231 32.2186C81.7268 32.0004 82.2525 31.8681 82.7814 31.7789C84.3318 31.5243 85.8922 31.3524 87.469 31.4185C88.6162 31.4648 89.717 31.7227 90.7517 32.2318C91.7104 32.7045 92.4774 33.3855 93.0162 34.3111C93.2642 34.7376 93.4691 35.1839 93.4956 35.6897C93.4956 35.7227 93.5154 35.7393 93.5418 35.7525V36.5624C93.5418 36.5624 93.5022 36.5855 93.5022 36.5988C93.4327 37.1244 93.1617 37.5509 92.8278 37.9476C92.7716 38.0137 92.7121 38.0765 92.6493 38.136C92.6162 38.169 92.5732 38.2054 92.527 38.1591C92.484 38.1194 92.5038 38.0666 92.5303 38.0269C92.5799 37.9575 92.6394 37.8914 92.6923 37.8252C93.6344 36.6285 93.4691 34.9426 92.3121 33.9607C92.0675 33.7525 91.7997 33.5838 91.5121 33.4483C90.5964 33.0119 89.6145 32.8401 88.6129 32.7442C88.517 32.7343 88.4542 32.7508 88.4046 32.8467C88.2823 33.0781 88.0972 33.2632 87.9087 33.4417C87.4261 33.8979 86.9501 34.3607 86.5104 34.8599C85.7038 35.7723 84.8178 36.5955 83.9087 37.3988C83.2244 38.0037 82.5235 38.5922 81.8326 39.1872C81.2442 39.6567 80.6524 40.1261 80.064 40.5955C79.4888 41.0154 78.9169 41.4385 78.3417 41.8583C78.1896 41.9575 78.0375 42.06 77.8855 42.1592C75.6375 43.6798 73.3201 45.0947 70.9829 46.47C68.3548 48.0204 65.6506 49.4287 62.8208 50.5824C62.1365 50.8601 61.4423 51.1179 60.7514 51.3857C60.1167 51.594 59.4819 51.799 58.8472 52.0072C58.7447 52.0337 58.6423 52.0535 58.5398 52.0833C55.429 52.9957 52.2521 53.4982 49.0091 53.5444C47.581 53.5643 46.1595 53.475 44.7413 53.3362C43.2173 53.1841 41.7098 52.9329 40.2321 52.5163C37.8255 51.8419 35.637 50.7576 33.7494 49.0981C33.6139 48.9791 33.5147 48.9857 33.3659 49.0452C32.4866 49.389 31.5742 49.5047 30.6452 49.346C28.4039 48.9593 26.9493 47.6601 26.2518 45.498C26.1493 45.184 26.1229 44.8567 26.0567 44.5394C26.0336 44.2121 26.0336 43.8815 26.0534 43.5542C26.0964 43.3195 26.1262 43.0782 26.1824 42.8468C26.6121 41.0683 27.6766 39.8186 29.3394 39.0781C29.5146 38.9988 29.5807 38.9195 29.5807 38.7211C29.5807 38.1327 29.6237 37.5475 29.6898 36.9624C29.908 35.0384 30.3907 33.1805 31.1576 31.402C32.1395 29.121 33.3957 26.9953 34.8172 24.9656C35.2106 24.4069 35.6205 23.8614 36.0238 23.3093C36.199 23.1143 36.3676 22.9127 36.5098 22.6912C36.7941 22.3771 37.0651 22.0564 37.3164 21.7159C37.3957 21.6333 37.4784 21.5506 37.5544 21.4647C38.0139 20.9589 38.4635 20.4432 38.9329 19.944C41.3859 17.3423 44.0933 15.0316 46.9859 12.9324C47.7661 12.3671 48.5595 11.8249 49.3496 11.2695C50.4174 10.5819 51.4818 9.891 52.5728 9.23645C52.7711 9.11744 52.9794 9.01496 53.1546 8.8662C53.2637 8.84636 53.343 8.77364 53.4356 8.72074C56.3645 6.9918 59.3729 5.42154 62.5332 4.1488C64.2489 3.45788 65.9944 2.85953 67.7895 2.41324C68.7415 2.17522 69.7102 2.01654 70.6821 1.87108C72.6193 1.58348 74.5631 1.42149 76.5235 1.44133C78.3681 1.46116 80.14 1.79835 81.8062 2.60828C82.7219 3.05126 83.5649 3.60334 84.2822 4.33393C85.2971 5.36534 85.8856 6.60172 86.0938 8.02984C86.3715 9.91416 85.9616 11.4414 85.6376 12.5324C85.3566 13.4811 85.0128 14.2448 84.7318 14.7968C84.6823 14.8861 84.6128 14.9985 84.5203 15.1241C84.4707 15.1969 84.4442 15.2332 84.4343 15.2299C84.3748 15.2134 84.5798 14.4894 84.7153 13.7059C84.8211 13.0877 84.9302 12.4795 84.864 11.7158C84.8145 11.1604 84.7748 10.7042 84.4806 10.2051C84.2327 9.78521 83.8624 9.4348 83.3698 9.15711C82.7682 8.81661 82.1103 8.63149 81.4326 8.51909C80.0442 8.28768 78.6524 8.3042 77.2574 8.42652C74.0276 8.71082 70.9135 9.52737 67.8424 10.5257C65.0754 11.4216 62.3745 12.4861 59.7067 13.6398C59.6538 13.663 59.6043 13.6927 59.5547 13.7191C59.3464 13.7753 59.1546 13.8745 58.9629 13.9737C58.9166 13.9902 58.8704 14.0002 58.8274 14.02C57.6505 14.5423 56.4802 15.0812 55.3265 15.6531C55.2571 15.6861 55.1811 15.7093 55.1348 15.7754C55.0257 15.782 54.9364 15.8481 54.8439 15.8944C52.9926 16.8134 51.1744 17.8019 49.4058 18.8729C46.5 20.6316 43.7429 22.5887 41.2305 24.8796C40.7247 25.3391 40.2222 25.8019 39.7627 26.3077C39.3627 26.678 38.9858 27.0681 38.6288 27.4846C38.5164 27.5606 38.4337 27.6631 38.3544 27.7689C38.2751 27.8515 38.1957 27.9309 38.123 28.0135C37.3627 28.8466 36.6354 29.7061 35.9511 30.602C34.6849 32.2582 33.5577 34.0037 32.7081 35.9145C32.3411 36.7442 32.037 37.5938 31.8551 38.4831C31.8188 38.6649 31.8188 38.6649 32.0105 38.6914C32.1328 38.7079 32.2585 38.7244 32.3808 38.7442C36.3974 39.4748 38.166 44.2286 35.6073 47.4154C35.561 47.4749 35.4916 47.5179 35.4783 47.5973C35.4883 47.6171 35.4949 47.6369 35.5081 47.6468C35.5709 47.6898 35.637 47.7328 35.6998 47.7725C36.4602 48.2485 37.2734 48.6221 38.1164 48.9295C39.3594 49.3824 40.6387 49.6898 41.9379 49.9146C42.9991 50.0998 44.0702 50.2386 45.1446 50.3146C46.2322 50.394 47.3198 50.3741 48.4074 50.3808C48.9463 50.3808 49.4851 50.3477 50.0207 50.2981C51.3926 50.1725 52.7513 49.9543 54.0967 49.6733C54.6687 49.5543 55.2472 49.4419 55.8092 49.27C56.0571 49.2469 56.2951 49.1642 56.5331 49.0981C56.9761 48.9758 57.4257 48.8865 57.8522 48.708C57.9513 48.7146 58.0406 48.675 58.1332 48.6485C59.158 48.3477 60.1728 48.0171 61.1778 47.6601C64.3018 46.5559 67.3531 45.2832 70.3052 43.7757C72.5697 42.6187 74.7251 41.2732 76.8772 39.9244C76.9169 39.898 76.9499 39.8616 76.983 39.8319C77.6706 39.4517 78.3285 39.0252 78.9797 38.5856C79.5979 38.2252 80.1995 37.8451 80.7847 37.4285L80.7814 37.4351ZM27.4716 44.0237C27.4683 46.2121 29.2171 47.9741 31.4089 47.9873C33.5808 48.0006 35.3527 46.2386 35.3725 44.0402C35.3924 41.8716 33.6139 40.0864 31.4287 40.0798C29.2402 40.0732 27.4749 41.8286 27.4716 44.0204V44.0237Z" fill="white"/>
<path d="M72.5599 62.2323C71.9846 61.9413 71.5747 61.667 71.3962 61.5447C63.1217 55.9215 59.5647 52.6751 59.5647 52.6751C59.32 52.4569 59.0655 52.252 58.844 52.0107C59.4787 51.8024 60.1134 51.5974 60.7482 51.3892C64.93 55.1314 66.9135 56.8934 67.9317 57.7859C69.1317 58.8405 69.7301 59.3694 69.8425 59.462C70.0111 59.6041 70.6359 60.1529 71.8888 61.2504C71.9615 61.3133 72.1268 61.4587 72.3285 61.6637C72.3582 61.6934 72.4871 61.8257 72.659 62.0141C72.7219 62.0868 72.7747 62.1463 72.8078 62.1827C72.8937 62.2852 72.9698 62.3744 73.0293 62.4471C72.94 62.4075 72.7714 62.3314 72.5665 62.229L72.5599 62.2323Z" fill="white"/>
<path d="M58.9563 13.977C59.148 13.8778 59.3398 13.7819 59.548 13.7224C60.2323 14.3142 60.92 14.8993 61.601 15.4943C63.2605 16.9456 64.8803 18.4398 66.4704 19.9704C68.8804 22.2878 71.1878 24.7011 73.3829 27.2234C75.697 29.878 77.773 32.7111 79.6739 35.6698C80.0475 36.2516 80.4111 36.8434 80.7781 37.4318C80.1962 37.845 79.5913 38.2285 78.9731 38.5888C78.9069 38.4731 78.8375 38.3574 78.7714 38.2384C78.2392 37.293 77.6838 36.3607 77.092 35.4516C76.2689 34.1888 75.4226 32.9425 74.5367 31.7226C73.611 30.4499 72.6623 29.197 71.687 27.9606C70.7779 26.8102 69.8457 25.6763 68.9002 24.5556C68.2688 23.8085 67.6242 23.0746 66.9762 22.3374C66.4572 21.7456 65.9316 21.1572 65.396 20.5853C64.9498 20.1093 64.52 19.6167 64.0671 19.1473C63.6076 18.6679 63.1646 18.1754 62.6952 17.7059C61.8853 16.896 61.0786 16.0828 60.2654 15.2762C59.9381 14.9522 59.6307 14.6051 59.2637 14.3208C59.1447 14.2282 59.0257 14.1224 58.9563 13.9803V13.977Z" fill="white"/>
<path d="M39.7363 6.28449C39.7363 5.6068 39.7628 5.10101 39.7859 4.7572C39.7925 4.65472 39.7958 4.60513 39.7925 4.52579C39.776 4.17537 39.6471 3.94396 39.3033 3.30263C39.2537 3.21007 39.1611 3.03487 39.0388 2.80347C39.5347 2.85636 40.2388 2.9456 41.0653 3.12081C42.1232 3.3423 43.505 3.73571 45.548 4.61836C48.2257 5.7754 50.7315 7.24319 53.1448 8.87627C52.9663 9.02833 52.758 9.12751 52.5629 9.24652C51.472 9.89776 50.4075 10.592 49.3398 11.2796C49.2703 11.1936 49.1778 11.1441 49.0918 11.0846C48.3381 10.5688 47.5645 10.0763 46.7844 9.60355C45.2174 8.65478 43.6141 7.77873 41.9248 7.07128C40.9165 6.64813 39.9248 6.3473 39.9248 6.3473C39.8454 6.32086 39.7793 6.30102 39.7363 6.2878V6.28449Z" fill="white"/>
<path d="M76.9797 39.8384C76.4871 39.1706 76.0012 38.5028 75.5053 37.8417C74.2028 36.1094 72.8474 34.4201 71.4523 32.7606C69.6242 30.5854 67.7432 28.4564 65.8192 26.3671C65.0291 25.5109 64.2324 24.658 63.4324 23.8151C62.1398 22.4531 60.8142 21.1208 59.4687 19.8084C58.1034 18.4761 56.7084 17.1769 55.267 15.9273C55.2174 15.8844 55.1745 15.8315 55.1282 15.7819C55.1745 15.7158 55.2538 15.6926 55.3199 15.6596C56.4737 15.091 57.6439 14.5521 58.8208 14.0265C58.8638 14.0067 58.91 13.9934 58.9563 13.9802C59.0257 14.1224 59.1448 14.2282 59.2638 14.3207C59.6307 14.605 59.9381 14.9521 60.2654 15.2761C61.0787 16.0827 61.8853 16.8959 62.6952 17.7059C63.1646 18.1753 63.6076 18.6712 64.0671 19.1472C64.52 19.6167 64.9498 20.1092 65.3961 20.5853C65.9349 21.1605 66.4572 21.7489 66.9763 22.3373C67.6242 23.0712 68.2721 23.8051 68.9002 24.5556C69.8457 25.6795 70.778 26.8101 71.6871 27.9606C72.6623 29.1936 73.6111 30.4498 74.5367 31.7226C75.4226 32.9424 76.2689 34.192 77.0921 35.4515C77.6838 36.3606 78.2425 37.2929 78.7714 38.2384C78.8376 38.3541 78.907 38.4698 78.9731 38.5888C78.3218 39.0285 77.664 39.4549 76.9764 39.8351L76.9797 39.8384Z" fill="white"/>
<path d="M55.8059 49.2734C55.2637 48.7544 54.7216 48.2354 54.1794 47.7164C49.0554 42.8238 44.4338 37.508 40.6156 31.5212C40.3875 31.1641 40.1561 30.8104 39.9611 30.4335C39.9776 30.3211 39.9181 30.2319 39.8718 30.136C39.4784 29.3459 39.0751 28.5624 38.7148 27.7558C38.6751 27.6699 38.6255 27.5839 38.6288 27.4847C38.9825 27.0715 39.3594 26.6781 39.7627 26.3079C41.6074 29.5674 43.7859 32.5955 46.0868 35.541C48.8372 39.065 51.7827 42.4205 54.8538 45.6668C55.7662 46.6321 56.7051 47.5742 57.6538 48.4999C57.7233 48.566 57.7861 48.6387 57.8522 48.7081C57.4257 48.8867 56.9761 48.9759 56.5332 49.0982C56.2951 49.1643 56.0571 49.247 55.8092 49.2701L55.8059 49.2734Z" fill="white"/>
<path d="M84.6426 51.2799C84.5104 51.6369 84.236 51.8782 83.9484 52.1063C83.4062 52.5361 82.8641 52.632 82.2393 52.7411C82.2393 52.7411 81.6409 52.8435 79.9913 52.589C79.9351 52.5791 79.8161 52.5625 79.7367 52.4667C79.664 52.3807 79.6574 52.2749 79.6574 52.2121C79.6607 52.1658 79.6739 52.0865 79.7268 52.0204C79.9516 51.7361 80.5235 52.0997 81.2442 51.9047C81.3665 51.8716 81.7533 51.7658 82.0211 51.422C82.226 51.1576 82.3021 50.8204 82.312 50.4137C82.3285 49.9013 82.1996 49.4022 82.0541 48.9129C81.8921 48.3575 81.6806 47.8187 81.4393 47.2964C80.5632 45.3922 79.502 43.5971 78.3351 41.8583C78.9103 41.4384 79.4822 41.0153 80.0574 40.5955C80.0839 40.6252 80.1136 40.6483 80.1335 40.6814C80.4078 41.1872 80.6921 41.6897 80.95 42.2054C81.3797 43.0649 81.8227 43.9211 82.226 44.7938C82.5897 45.5773 82.9533 46.3608 83.2905 47.1575C83.8029 48.3608 84.2129 49.6005 84.5666 50.8567C84.6062 50.9923 84.6591 51.1311 84.6393 51.2799H84.6426Z" fill="white"/>
<path d="M84.6427 51.28C84.6625 51.1312 84.6096 50.9924 84.57 50.8568C84.2162 49.5973 83.8063 48.3609 83.2939 47.1576C82.9567 46.3609 82.5931 45.5774 82.2294 44.7939C81.8261 43.9212 81.3831 43.065 80.9534 42.2055C80.6955 41.6898 80.4112 41.1873 80.1368 40.6815C80.1203 40.6484 80.0872 40.6253 80.0608 40.5955C80.6492 40.1261 81.241 39.6567 81.8294 39.1873C82.8807 40.9856 83.7765 42.8567 84.4179 44.8435C84.8146 46.0733 85.1154 47.3262 85.1914 48.6188C85.2377 49.3857 85.1716 50.1395 84.8807 50.8601C84.8212 51.0089 84.7749 51.1709 84.6394 51.28H84.6427Z" fill="white"/>
<path d="M33.7229 10.3703C33.68 10.9323 33.7527 11.4877 33.8056 12.043C33.6833 12.0926 33.7163 12.2017 33.7163 12.291C33.7229 12.8464 33.8188 13.3951 33.918 13.9406C34.1461 15.1737 34.437 16.3902 34.7973 17.5935C35.2106 18.9721 35.6734 20.3341 36.1593 21.6862C36.2783 22.02 36.4403 22.3374 36.4998 22.6911C36.3577 22.9126 36.1891 23.1143 36.0139 23.3093C34.9197 21.1109 33.9709 18.853 33.2337 16.5092C32.7808 15.0778 32.437 13.6199 32.2287 12.1323C32.1361 11.4745 32.0899 10.8133 32.0502 10.1521C32.0436 10.0265 32.0535 9.90419 32.0568 9.77856C32.5428 10.0199 33.0486 10.2149 33.5775 10.3472C33.6238 10.3571 33.6734 10.3604 33.7196 10.367L33.7229 10.3703Z" fill="white"/>
<path d="M36.5031 22.6945C36.4436 22.3407 36.2817 22.0201 36.1627 21.6895C35.6734 20.3374 35.2139 18.9754 34.8007 17.5969C34.4403 16.3936 34.1494 15.177 33.9213 13.9439C33.8221 13.3985 33.7263 12.853 33.7196 12.2943C33.7196 12.2051 33.6866 12.096 33.8089 12.0464C34.123 13.9869 34.7478 15.8316 35.4783 17.6465C36.0337 19.0316 36.6453 20.3903 37.3131 21.7225C37.0618 22.063 36.7908 22.3837 36.5065 22.6978L36.5031 22.6945Z" fill="white"/>
<path d="M38.6255 27.4878C38.6222 27.587 38.6718 27.6729 38.7114 27.7589C39.0751 28.5622 39.4751 29.349 39.8685 30.1391C39.9148 30.2316 39.9775 30.3209 39.9577 30.4366C39.7197 30.1688 39.5676 29.8449 39.3825 29.5407C39.0288 28.9556 38.6916 28.3605 38.3478 27.7721C38.4271 27.6663 38.5098 27.5638 38.6222 27.4878H38.6255Z" fill="white"/>
<path d="M58.8274 40.5988C56.9993 40.5988 55.1712 40.5988 53.3398 40.5988C53.2737 40.5988 53.2042 40.5988 53.1381 40.5988C52.6654 40.5889 52.3877 40.3079 52.3976 39.8319C52.4174 39.0616 52.5001 38.2947 52.6786 37.5443C53.029 36.05 53.6571 34.6914 54.639 33.5046C54.7844 33.326 54.9431 33.1574 55.1084 32.9955C55.4224 32.6913 55.7431 32.6715 56.0902 32.9426C56.5828 33.326 57.115 33.6236 57.72 33.7822C58.6853 34.0335 59.6274 33.9343 60.5531 33.5905C60.996 33.4252 61.4159 33.2103 61.806 32.9426C62.1961 32.6781 62.4738 32.6979 62.8143 33.0219C63.6605 33.8285 64.2358 34.8104 64.6358 35.9013C65.0887 37.1311 65.2837 38.4104 65.3333 39.7162C65.3564 40.3377 64.9928 40.6088 64.4639 40.6022C62.5861 40.5856 60.7085 40.5956 58.834 40.5956L58.8274 40.5988Z" fill="white"/>
<path d="M62.6259 27.9806C62.6259 30.2451 60.811 32.06 58.5498 32.06C56.2721 32.06 54.4539 30.2451 54.4572 27.9674C54.4572 25.6929 56.282 23.8813 58.563 23.888C60.8176 23.8946 62.6292 25.7161 62.6259 27.9806V27.9806ZM58.5366 30.9756C60.1895 30.9823 61.5316 29.65 61.5448 27.9938C61.5581 26.3277 60.2159 24.9756 58.5498 24.969C56.8969 24.9657 55.5547 26.2913 55.5415 27.9508C55.5283 29.6137 56.8704 30.969 58.5366 30.9756Z" fill="white"/>
<path d="M34.5956 0.00330905C33.194 0.00330905 31.8749 0.552087 30.8799 1.54383C29.8881 2.53889 29.3394 3.85791 29.3394 5.25958C29.3394 8.15548 31.6964 10.5092 34.5923 10.5092C35.994 10.5092 37.313 9.96045 38.3048 8.96871C39.2965 7.97365 39.8453 6.65463 39.8453 5.25296C39.8453 2.35706 37.4849 0 34.589 0L34.5956 0.00330905ZM37.3262 7.98689C36.5957 8.71747 35.627 9.12078 34.5956 9.12078C32.4667 9.12078 30.7311 7.38853 30.7311 5.25958C30.7311 4.22816 31.1344 3.25955 31.865 2.52896C32.5956 1.79838 33.5642 1.39507 34.5956 1.39507C36.7246 1.39507 38.4601 3.12732 38.4601 5.25627C38.4601 6.28438 38.0568 7.2563 37.3262 7.98689Z" fill="white"/>
<path d="M8.34076 83.2473C5.18039 83.2473 2.88946 82.3745 1.46465 80.6324C0.0398401 78.8902 -0.346938 76.467 0.310921 73.3695C1.00845 70.0868 2.42996 67.5082 4.57213 65.6305C6.71431 63.7528 9.51104 62.814 12.959 62.814C14.1491 62.814 15.2103 62.8801 16.1425 63.0156C17.0748 63.1478 17.9442 63.3594 18.7442 63.647L17.9739 67.2173C17.1739 66.9099 16.3111 66.6884 15.3888 66.5562C14.4665 66.4239 13.5012 66.3545 12.4962 66.3545C10.2615 66.3545 8.49616 66.933 7.20358 68.0934C5.911 69.2537 5.01842 71.0124 4.52585 73.3695C4.21841 74.7844 4.14569 75.9645 4.31098 76.9067C4.47627 77.8522 4.94239 78.5596 5.71265 79.029C6.48291 79.5018 7.63663 79.7365 9.17384 79.7365C9.87137 79.7365 10.559 79.6803 11.2367 79.5679C11.9144 79.4555 12.5392 79.3067 13.1144 79.1216L14.0995 74.5067H9.48459L10.04 71.8587H18.1624L16.0995 81.5514C15.3392 81.9811 14.3144 82.3712 13.0218 82.7217C11.7292 83.0721 10.1689 83.244 8.34407 83.244L8.34076 83.2473Z" fill="white"/>
<path d="M24.9492 83.1581C22.8235 83.1581 21.2929 82.5729 20.3607 81.4027C19.4285 80.2324 19.2103 78.4539 19.7128 76.0704C20.2582 73.5282 21.1872 71.6901 22.5029 70.5562C23.8153 69.4223 25.65 68.8538 28.0071 68.8538C30.1889 68.8538 31.736 69.4223 32.6484 70.5562C33.5609 71.6901 33.7427 73.5282 33.1972 76.0704C32.6947 78.4539 31.7823 80.2324 30.46 81.4027C29.1377 82.5729 27.2996 83.1581 24.9459 83.1581H24.9492ZM25.488 80.682C26.7938 80.682 27.8285 80.3051 28.5889 79.5514C29.3492 78.7977 29.9013 77.6373 30.2484 76.0737C30.5063 74.8803 30.5955 73.9414 30.5162 73.2505C30.4368 72.5629 30.1525 72.0703 29.6666 71.7761C29.1773 71.4819 28.4468 71.3331 27.4682 71.3331C26.1624 71.3331 25.1244 71.6868 24.3541 72.4009C23.5872 73.1117 23.0219 74.3348 22.6615 76.0737C22.331 77.6968 22.364 78.8704 22.7574 79.5944C23.1508 80.3184 24.0599 80.682 25.4814 80.682H25.488Z" fill="white"/>
<path d="M39.8123 83.1582C38.6189 83.1582 37.604 82.9433 36.7643 82.5135C35.9246 82.0838 35.3197 81.4623 34.956 80.649C34.5891 79.8391 34.5296 78.8639 34.7742 77.73L36.6056 69.072H39.5148L37.7263 77.5151C37.4817 78.692 37.5478 79.5151 37.9213 79.9812C38.2949 80.4474 39.1048 80.6821 40.3544 80.6821C41.5181 80.6821 42.4074 80.4209 43.0255 79.8953C43.6437 79.373 44.0669 78.5796 44.295 77.5151L46.0834 69.072H48.9926L47.1611 77.73C46.7744 79.5548 45.9809 80.9135 44.7809 81.8127C43.5809 82.7119 41.928 83.1582 39.8156 83.1582H39.8123Z" fill="white"/>
<path d="M47.009 82.9399L55.2372 69.0686H58.424L60.7712 82.9399H57.8621L57.2373 79.601H52.1331L50.1529 82.9399H47.009ZM53.062 77.3596H57.3067L56.3579 71.7794L53.062 77.3596Z" fill="white"/>
<path d="M62.8175 82.9399L65.7465 69.0686H68.2655L72.8738 78.3084L74.8342 69.0686H77.7433L74.8143 82.9399H72.2953L67.687 73.7001L65.7266 82.9399H62.8175Z" fill="white"/>
<path d="M80.6987 82.9397L83.1549 71.3065H78.8904L79.3631 69.0652H90.7814L90.3087 71.3065H86.064L83.6078 82.9397H80.6987V82.9397Z" fill="white"/>
<path d="M95.4757 83.1582C94.2823 83.1582 93.2674 82.9433 92.4277 82.5135C91.588 82.0838 90.9831 81.4623 90.6194 80.649C90.2525 79.8391 90.193 78.8639 90.4377 77.73L92.2691 69.072H95.1782L93.3897 77.5151C93.1451 78.692 93.2112 79.5151 93.5848 79.9812C93.9583 80.4474 94.7682 80.6821 96.0178 80.6821C97.1815 80.6821 98.0708 80.4209 98.689 79.8953C99.3072 79.373 99.7303 78.5796 99.9584 77.5151L101.747 69.072H104.656L102.825 77.73C102.438 79.5548 101.644 80.9135 100.444 81.8127C99.2443 82.7119 97.5915 83.1582 95.479 83.1582H95.4757Z" fill="white"/>
<path d="M104.091 82.9399L107.02 69.0686H109.843L112.147 77.4059L117.985 69.0686H121L118.071 82.9399H115.162L117.079 73.915L112.428 80.5497H110.749L108.917 73.915L107 82.9399H104.091V82.9399Z" fill="white"/>
<path d="M66.7349 95.145L71.2176 87.5879H72.9531L74.2325 95.145H72.649L72.3085 93.3268H69.5283L68.4473 95.145H66.7349V95.145ZM70.0341 92.1069H72.3449L71.8292 89.0689L70.0341 92.1069V92.1069Z" fill="white"/>
<path d="M76.9631 95.2276C76.6226 95.2276 76.3118 95.2044 76.0308 95.1548C75.7498 95.1053 75.5118 95.0358 75.3201 94.94L75.525 93.9614C75.7432 94.0606 75.9878 94.1399 76.2556 94.1995C76.5234 94.259 76.7911 94.2887 77.0622 94.2887C77.4457 94.2887 77.7333 94.2524 77.9283 94.1829C78.1234 94.1135 78.249 93.9515 78.3019 93.697C78.335 93.5383 78.3217 93.4127 78.2655 93.3201C78.2094 93.2276 78.0937 93.1449 77.9218 93.0689C77.7498 92.9961 77.5019 92.9102 77.1779 92.8176C76.6589 92.6656 76.3085 92.4738 76.13 92.2424C75.9515 92.011 75.9052 91.6936 75.9944 91.2903C76.0969 90.8044 76.3416 90.4275 76.7217 90.1663C77.1019 89.9019 77.6639 89.7729 78.411 89.7729C78.7284 89.7729 79.0193 89.7961 79.2871 89.8391C79.5515 89.882 79.7631 89.9349 79.9152 89.9945L79.7003 90.973C79.2937 90.8044 78.8474 90.7184 78.3515 90.7184C78.0077 90.7184 77.7267 90.7548 77.5118 90.8308C77.297 90.9035 77.168 91.0589 77.1184 91.2936C77.092 91.4292 77.1019 91.5416 77.1548 91.6209C77.2077 91.7003 77.3135 91.7763 77.4755 91.8424C77.6374 91.9085 77.8623 91.9812 78.1532 92.0639C78.5631 92.1796 78.8705 92.3151 79.0689 92.4738C79.2672 92.6325 79.3928 92.8143 79.4424 93.016C79.492 93.2176 79.4887 93.4457 79.4358 93.697C79.3697 94.0044 79.2507 94.2722 79.0788 94.5003C78.9069 94.7317 78.6523 94.9069 78.3151 95.0358C77.978 95.1615 77.5283 95.2243 76.9631 95.2243V95.2276Z" fill="white"/>
<path d="M89.2641 95.1218C88.4542 95.1218 87.869 94.8971 87.5153 94.4508C87.1583 94.0045 87.0756 93.3268 87.2674 92.4177C87.4756 91.4491 87.8293 90.7482 88.3318 90.3152C88.8343 89.8821 89.5319 89.6672 90.4311 89.6672C91.2641 89.6672 91.8526 89.8821 92.1997 90.3152C92.5468 90.7482 92.6162 91.4491 92.4079 92.4177C92.2162 93.3268 91.8691 94.0045 91.3633 94.4508C90.8608 94.8971 90.1567 95.1218 89.2608 95.1218H89.2641ZM89.4691 94.1764C89.9682 94.1764 90.3616 94.0309 90.6525 93.7466C90.9434 93.459 91.155 93.016 91.2839 92.421C91.3831 91.9681 91.4162 91.6078 91.3864 91.3433C91.3567 91.0788 91.2476 90.8937 91.0624 90.7813C90.8773 90.6689 90.5963 90.6127 90.2228 90.6127C89.7236 90.6127 89.3302 90.7482 89.036 91.0193C88.7417 91.2904 88.5269 91.7565 88.3913 92.421C88.2657 93.0392 88.2789 93.4888 88.4277 93.7632C88.5798 94.0408 88.9236 94.1764 89.4657 94.1764H89.4691Z" fill="white"/>
<path d="M94.9302 95.1218C94.4773 95.1218 94.0872 95.0392 93.7666 94.8739C93.4459 94.7086 93.2145 94.4739 93.0757 94.1632C92.9368 93.8524 92.9136 93.4822 93.0062 93.0491L93.7037 89.7466H94.8145L94.1335 92.9665C94.0409 93.416 94.0641 93.7301 94.2062 93.9086C94.3484 94.0871 94.6591 94.1764 95.1352 94.1764C95.5782 94.1764 95.9187 94.0772 96.1534 93.8756C96.3881 93.6772 96.5501 93.3731 96.6393 92.9665L97.3203 89.7466H98.4311L97.7336 93.0491C97.5848 93.7433 97.284 94.2623 96.8245 94.6061C96.3683 94.9499 95.7368 95.1185 94.9302 95.1185V95.1218Z" fill="white"/>
<path d="M83.1484 95.102L83.7368 92.3086L82.0343 87.5449H83.6409L84.7781 90.9598L87.3467 87.5449H89.036L85.317 92.3086L84.7319 95.102H83.1484V95.102Z" fill="white"/>
<path d="M103.41 95.0622C102.206 95.0622 101.33 94.7283 100.788 94.0639C100.243 93.3994 100.097 92.4771 100.348 91.2936C100.613 90.0407 101.155 89.0588 101.975 88.3415C102.791 87.6241 103.859 87.2671 105.172 87.2671C105.625 87.2671 106.031 87.2935 106.385 87.3431C106.742 87.3927 107.073 87.4753 107.377 87.5844L107.082 88.9464C106.778 88.8274 106.448 88.7448 106.097 88.6952C105.747 88.6456 105.377 88.6192 104.993 88.6192C104.14 88.6192 103.466 88.8407 102.973 89.2836C102.481 89.7266 102.14 90.3977 101.952 91.2969C101.833 91.8357 101.806 92.2853 101.869 92.6457C101.932 93.006 102.11 93.2771 102.405 93.4556C102.699 93.6341 103.139 93.7267 103.724 93.7267C103.988 93.7267 104.253 93.7068 104.511 93.6605C104.768 93.6176 105.006 93.5614 105.228 93.4919L105.605 91.7332H103.843L104.054 90.725H107.152L106.365 94.4209C106.074 94.5862 105.684 94.7349 105.191 94.8672C104.699 94.9994 104.104 95.0655 103.406 95.0655L103.41 95.0622Z" fill="white"/>
<path d="M109.744 95.0259C108.934 95.0259 108.349 94.8011 107.995 94.3548C107.638 93.9085 107.555 93.2308 107.747 92.3217C107.955 91.3531 108.309 90.6523 108.811 90.2192C109.314 89.7862 110.011 89.5713 110.911 89.5713C111.744 89.5713 112.332 89.7862 112.679 90.2192C113.026 90.6523 113.096 91.3531 112.888 92.3217C112.696 93.2308 112.349 93.9085 111.843 94.3548C111.34 94.8011 110.636 95.0259 109.74 95.0259H109.744ZM109.949 94.0804C110.448 94.0804 110.841 93.935 111.132 93.6507C111.423 93.3631 111.635 92.9201 111.764 92.325C111.863 91.8721 111.896 91.5118 111.866 91.2473C111.836 90.9829 111.727 90.7977 111.542 90.6854C111.357 90.573 111.076 90.5168 110.702 90.5168C110.203 90.5168 109.81 90.6523 109.516 90.9234C109.221 91.1945 109.006 91.6606 108.871 92.325C108.745 92.9432 108.759 93.3928 108.907 93.6672C109.059 93.9449 109.403 94.0804 109.945 94.0804H109.949Z" fill="white"/>
<path d="M114.821 95.0756L115.069 93.9152H116.735L116.488 95.0756H114.821ZM115.35 93.0921L116.055 89.4523L116.464 87.5151H118.048L117.638 89.4523L116.792 93.0921H115.347H115.35Z" fill="white"/>
</svg>
