<svg width="121" height="38" viewBox="0 0 121 38" fill="none" xmlns="http://www.w3.org/2000/svg">
<path d="M32.9094 22.4999C32.9732 22.4834 33.0205 22.4402 33.074 22.4052C34.2507 21.6482 35.411 20.8603 36.5939 20.1135C36.8387 19.9592 37.0876 19.8111 37.3427 19.6856C37.3427 19.6424 37.316 19.6506 37.2954 19.6486C36.7359 19.6012 36.1743 19.591 35.6126 19.6136C34.9049 19.6424 34.2076 19.7411 33.5287 19.9551C33.3785 20.0024 33.2365 20.0662 33.1007 20.1423C32.9814 20.2081 32.9773 20.2801 33.0761 20.3768C33.1481 20.4468 33.2406 20.4838 33.3353 20.5126C33.3908 20.529 33.4484 20.5414 33.4999 20.5661C33.5677 20.599 33.5657 20.6566 33.4999 20.6977C33.4567 20.7245 33.4093 20.7286 33.3661 20.7163C33.1152 20.6484 32.8848 20.5434 32.7305 20.3233C32.5515 20.0682 32.5803 19.8028 32.8086 19.591C32.9156 19.4902 33.0431 19.4223 33.1769 19.3647C33.4752 19.233 33.7899 19.1548 34.1088 19.1013C35.0407 18.947 35.9788 18.8442 36.9251 18.8833C37.6143 18.9121 38.2767 19.0664 38.898 19.3729C39.474 19.6568 39.9349 20.0662 40.2599 20.6216C40.408 20.8788 40.5335 21.1462 40.5479 21.4486C40.5479 21.4671 40.5603 21.4795 40.5767 21.4877V21.9753C40.5767 21.9753 40.5541 21.9876 40.552 21.9959C40.5109 22.3127 40.3484 22.5698 40.1467 22.8064C40.1138 22.8455 40.0768 22.8846 40.0398 22.9195C40.0192 22.9401 39.9924 22.9607 39.9657 22.9339C39.941 22.9093 39.9513 22.8784 39.9678 22.8558C39.9986 22.8146 40.0336 22.7755 40.0645 22.7344C40.6302 22.0164 40.5315 21.0022 39.8361 20.4118C39.6901 20.2884 39.5275 20.1855 39.3547 20.1032C38.8034 19.8399 38.213 19.7391 37.6123 19.6794C37.5546 19.6732 37.5176 19.6835 37.4868 19.7411C37.4127 19.881 37.3016 19.9921 37.1884 20.0991C36.8984 20.3748 36.6124 20.6525 36.3471 20.9508C35.8636 21.498 35.3287 21.9938 34.7836 22.4772C34.3721 22.8414 33.9525 23.1952 33.5348 23.5532C33.181 23.835 32.8251 24.1168 32.4712 24.3987C32.1256 24.6517 31.7821 24.9048 31.4365 25.1578C31.3459 25.2175 31.2534 25.2771 31.1629 25.3388C29.8113 26.2523 28.4185 27.1019 27.0134 27.9309C25.4335 28.8629 23.8083 29.7104 22.1069 30.4017C21.6955 30.5704 21.2779 30.7247 20.8623 30.8851C20.4817 31.0086 20.0991 31.134 19.7185 31.2575C19.6568 31.2719 19.5951 31.2863 19.5334 31.3027C17.6633 31.85 15.7542 32.1524 13.806 32.1812C12.9482 32.1935 12.0944 32.14 11.2407 32.0557C10.3232 31.9652 9.41799 31.8129 8.53132 31.564C7.08509 31.1587 5.76846 30.5066 4.63492 29.5088C4.55469 29.4389 4.49298 29.4409 4.40452 29.4759C3.87581 29.6837 3.32654 29.7516 2.76903 29.657C1.42155 29.4245 0.547237 28.6427 0.127563 27.3446C0.0679035 27.1574 0.0493744 26.9599 0.0102871 26.7686C-0.00411345 26.5711 -0.00205823 26.3736 0.0082279 26.1761C0.0329146 26.0342 0.0514306 25.8902 0.0864034 25.7503C0.343557 24.6826 0.98543 23.9317 1.98318 23.4853C2.09016 23.438 2.12718 23.3886 2.12924 23.2713C2.12924 22.9175 2.15597 22.5657 2.19506 22.2139C2.32672 21.0578 2.6168 19.9407 3.07762 18.873C3.66804 17.5029 4.42303 16.2233 5.27678 15.0033C5.51336 14.668 5.76023 14.3389 6.00093 14.0076C6.10584 13.8904 6.20666 13.769 6.29306 13.6353C6.46381 13.4481 6.62633 13.2526 6.77856 13.049C6.82588 12.9996 6.87526 12.9502 6.92052 12.8988C7.19619 12.5943 7.46567 12.2837 7.74957 11.9854C9.2246 10.4219 10.8519 9.03328 12.5902 7.7722C13.0593 7.43276 13.5366 7.10566 14.0097 6.77239C14.6516 6.35888 15.2913 5.94332 15.9476 5.55039C16.0669 5.48045 16.1904 5.41873 16.2973 5.32821C16.3611 5.31587 16.4105 5.27267 16.466 5.23975C18.227 4.20085 20.0353 3.25659 21.9341 2.49336C22.9648 2.0778 24.014 1.71778 25.094 1.45035C25.666 1.3084 26.2502 1.21171 26.8324 1.1253C27.9968 0.952496 29.1653 0.855807 30.3441 0.86815C31.4529 0.880493 32.5165 1.08416 33.5204 1.56966C34.0697 1.8371 34.5778 2.16832 35.0099 2.60651C35.6188 3.22573 35.9726 3.97045 36.1002 4.82625C36.2668 5.95978 36.0199 6.87525 35.8266 7.5315C35.6579 8.10135 35.4522 8.56012 35.2835 8.89133C35.2526 8.94482 35.2115 9.0127 35.158 9.08882C35.1271 9.13202 35.1107 9.15465 35.1065 9.15259C35.0716 9.14231 35.193 8.70824 35.2752 8.23507C35.339 7.86272 35.4048 7.49653 35.3637 7.03982C35.3349 6.70655 35.3102 6.43294 35.1333 6.13259C34.9831 5.87955 34.763 5.66971 34.4667 5.50308C34.1047 5.29736 33.7097 5.18832 33.3024 5.11838C32.4692 4.97849 31.6298 4.98877 30.7925 5.06283C28.8505 5.23358 26.9805 5.72526 25.1331 6.32391C23.4709 6.8629 21.8457 7.5027 20.2431 8.19599C20.2122 8.21039 20.1814 8.2289 20.1526 8.24536C20.0271 8.28033 19.9119 8.33793 19.7967 8.39759C19.7699 8.40788 19.7411 8.41405 19.7144 8.42639C19.0067 8.74115 18.3052 9.06413 17.6099 9.40769C17.5687 9.42826 17.5234 9.44061 17.4946 9.48175C17.4288 9.48587 17.3753 9.52495 17.3198 9.55376C16.2068 10.1071 15.1144 10.6996 14.0508 11.3435C12.3043 12.3989 10.6482 13.5756 9.13819 14.954C8.83578 15.2317 8.53339 15.5094 8.25566 15.8118C8.01497 16.034 7.78866 16.2685 7.57471 16.5195C7.50682 16.5648 7.45744 16.6265 7.41012 16.6903C7.3628 16.7396 7.3155 16.787 7.27024 16.8363C6.81354 17.3383 6.37741 17.8547 5.96597 18.3937C5.2048 19.3893 4.52795 20.4385 4.01776 21.5865C3.79763 22.0843 3.61454 22.5966 3.50551 23.1314C3.48288 23.2425 3.48495 23.2405 3.5981 23.2569C3.67216 23.2672 3.74621 23.2754 3.82027 23.2898C6.23545 23.7301 7.29905 26.5876 5.76025 28.5029C5.73144 28.5378 5.69236 28.5646 5.68207 28.6119C5.68824 28.6222 5.69235 28.6366 5.70058 28.6407C5.73761 28.6674 5.77668 28.6921 5.81577 28.7168C6.27453 29.0028 6.7621 29.227 7.26818 29.4121C8.01496 29.6837 8.78436 29.8688 9.56405 30.0046C10.2018 30.1157 10.8457 30.198 11.4917 30.2453C12.1438 30.2926 12.798 30.2803 13.4522 30.2844C13.7773 30.2844 14.1002 30.2638 14.4232 30.235C15.2482 30.1589 16.0628 30.0293 16.8734 29.8586C17.219 29.7866 17.5646 29.7207 17.902 29.6158C18.0521 29.6014 18.1941 29.552 18.3381 29.5129C18.6035 29.4389 18.8751 29.3875 19.1301 29.2784C19.1898 29.2825 19.2433 29.2579 19.2988 29.2435C19.9139 29.0624 20.5249 28.8629 21.1298 28.6489C23.006 27.9844 24.841 27.2212 26.6143 26.316C27.9762 25.6207 29.2723 24.8122 30.5663 24.0016C30.5909 23.9872 30.6095 23.9646 30.63 23.9461C31.0435 23.7177 31.4406 23.4627 31.8294 23.1973C32.2018 22.9813 32.5638 22.7509 32.9136 22.5019L32.9094 22.4999ZM0.868159 26.46C0.866102 27.7767 1.91735 28.8341 3.23603 28.8444C4.54236 28.8526 5.60594 27.7931 5.61828 26.4724C5.62857 25.1681 4.56087 24.0963 3.24836 24.0922C1.93173 24.0881 0.872275 25.1434 0.870218 26.46H0.868159Z" fill="#11476B"/>
<path d="M27.968 37.4045C27.6224 37.2296 27.3776 37.065 27.2686 36.991C22.2962 33.6109 20.1567 31.6607 20.1567 31.6607C20.0107 31.529 19.8564 31.4056 19.7247 31.2616C20.1053 31.1382 20.4879 31.0127 20.8685 30.8892C23.3825 33.1378 24.5757 34.1973 25.1866 34.7342C25.9067 35.3678 26.2688 35.6846 26.3346 35.7422C26.4354 35.8266 26.8119 36.1578 27.5648 36.8182C27.608 36.8552 27.7067 36.9437 27.8302 37.0671C27.8466 37.0835 27.9269 37.1638 28.0277 37.279C28.0668 37.3222 28.0976 37.3572 28.1161 37.3798C28.1676 37.4415 28.2128 37.495 28.2478 37.5402C28.1943 37.5176 28.0935 37.4703 27.968 37.4086V37.4045Z" fill="#FFB44C"/>
<path d="M19.7926 8.40172C19.9078 8.34206 20.023 8.28445 20.1485 8.24948C20.5599 8.60538 20.9734 8.95717 21.3828 9.31513C22.3806 10.1874 23.3537 11.0864 24.3103 12.0039C25.7585 13.3967 27.1451 14.847 28.4659 16.3632C29.8566 17.9596 31.1032 19.6609 32.2471 21.4404C32.4713 21.7901 32.6893 22.146 32.9095 22.4999C32.5597 22.7488 32.1977 22.9792 31.8253 23.1952C31.7842 23.1253 31.743 23.0553 31.7039 22.9854C31.3851 22.4155 31.0497 21.856 30.6938 21.3108C30.198 20.5517 29.6899 19.8029 29.1571 19.0684C28.6016 18.3031 28.0318 17.5502 27.4455 16.8075C26.8982 16.1163 26.3387 15.4354 25.7709 14.7606C25.3924 14.3101 25.0035 13.8698 24.6147 13.4275C24.302 13.0737 23.9873 12.7198 23.6643 12.3742C23.3968 12.0883 23.1376 11.792 22.8661 11.5102C22.5884 11.2222 22.323 10.9259 22.0412 10.6441C21.5536 10.1565 21.0701 9.66691 20.5805 9.18346C20.383 8.98803 20.1979 8.78025 19.9778 8.6095C19.9058 8.55395 19.8337 8.49018 19.7926 8.40377V8.40172Z" fill="#F49919"/>
<path d="M8.23924 3.77707C8.23924 3.36974 8.2557 3.06527 8.2701 2.85749C8.27421 2.79577 8.27628 2.76697 8.27422 2.71966C8.26599 2.50776 8.18575 2.36993 7.98002 1.98317C7.95122 1.92763 7.89364 1.82065 7.81958 1.68282C8.11788 1.71367 8.53959 1.76922 9.03744 1.87414C9.67312 2.00786 10.5042 2.24444 11.7324 2.7752C13.3432 3.47054 14.8491 4.35309 16.2995 5.33439C16.1925 5.42491 16.067 5.48662 15.9497 5.55657C15.2955 5.9495 14.6557 6.36506 14.0118 6.77856C13.9707 6.72713 13.9151 6.69627 13.8616 6.6613C13.4091 6.35066 12.9441 6.05647 12.4751 5.77052C11.5349 5.20067 10.5701 4.67402 9.55381 4.24817C8.94693 3.99308 8.35034 3.81204 8.35034 3.81204C8.30302 3.79764 8.26186 3.7853 8.23718 3.77707H8.23924Z" fill="#FFB44B"/>
<path d="M30.6259 23.944C30.3296 23.5429 30.0375 23.1417 29.7392 22.7426C28.9575 21.7017 28.1407 20.6854 27.3035 19.6897C26.2049 18.3813 25.0755 17.1017 23.9173 15.8468C23.4421 15.3325 22.9648 14.8202 22.4813 14.3121C21.7037 13.4933 20.9075 12.6931 20.0991 11.9052C19.2782 11.1049 18.4389 10.3252 17.5748 9.57226C17.544 9.54552 17.5193 9.51466 17.4905 9.48586C17.5193 9.44472 17.5646 9.43237 17.6057 9.4118C18.299 9.0703 19.0025 8.74526 19.7102 8.4305C19.737 8.41816 19.7637 8.41199 19.7925 8.4017C19.8337 8.48811 19.9057 8.54982 19.9777 8.60743C20.1978 8.77818 20.3829 8.98595 20.5804 9.18139C21.0701 9.66689 21.5556 10.1545 22.0411 10.642C22.3229 10.9239 22.5883 11.2222 22.866 11.5081C23.1376 11.79 23.3968 12.0862 23.6642 12.3721C23.9872 12.7178 24.302 13.0716 24.6146 13.4254C25.0035 13.8657 25.3923 14.308 25.7708 14.7585C26.3386 15.4333 26.8982 16.1142 27.4454 16.8055C28.0317 17.5481 28.6016 18.3011 29.157 19.0664C29.6898 19.8008 30.198 20.5496 30.6938 21.3087C31.0497 21.856 31.385 22.4155 31.7039 22.9833C31.743 23.0533 31.7841 23.1232 31.8252 23.1931C31.4344 23.4585 31.0373 23.7136 30.6259 23.942V23.944Z" fill="#FFB44B"/>
<path d="M17.8979 29.6158C17.5728 29.3031 17.2457 28.9925 16.9207 28.6798C13.841 25.738 11.0638 22.5431 8.76789 18.945C8.63211 18.731 8.49221 18.5171 8.37495 18.2908C8.38524 18.2229 8.34821 18.1694 8.32146 18.1118C8.08488 17.6366 7.84419 17.1655 7.62612 16.682C7.60143 16.6286 7.57263 16.5792 7.57469 16.5195C7.78658 16.2706 8.01495 16.034 8.25564 15.8118C9.36449 17.7703 10.6729 19.591 12.0553 21.3622C13.7093 23.4791 15.4786 25.4973 17.3259 27.4475C17.8752 28.0276 18.4368 28.5934 19.0087 29.1509C19.0499 29.192 19.089 29.2352 19.1281 29.2764C18.873 29.3834 18.6014 29.4368 18.336 29.5109C18.192 29.55 18.0501 29.5994 17.8999 29.6138L17.8979 29.6158Z" fill="#FFB44C"/>
<path d="M35.23 30.8213C35.1497 31.0353 34.9852 31.1814 34.8144 31.3171C34.4873 31.5764 34.1623 31.634 33.7879 31.6977C33.7879 31.6977 33.4278 31.7594 32.4362 31.6072C32.4033 31.6031 32.3313 31.5908 32.284 31.5332C32.2408 31.4817 32.2367 31.4179 32.2367 31.3809C32.2388 31.3521 32.247 31.3069 32.2778 31.2657C32.4116 31.095 32.7572 31.313 33.1892 31.1958C33.2612 31.1752 33.4937 31.1114 33.6562 30.9057C33.7796 30.7473 33.8249 30.5436 33.831 30.3009C33.8393 29.9923 33.7632 29.694 33.6768 29.3978C33.578 29.0645 33.4525 28.7415 33.3064 28.4247C32.7798 27.2809 32.1421 26.2008 31.4406 25.1558C31.7862 24.9027 32.1297 24.6497 32.4753 24.3966C32.4897 24.4131 32.5103 24.4275 32.5206 24.4481C32.6852 24.7525 32.8559 25.0549 33.0123 25.3635C33.2715 25.8799 33.5369 26.3942 33.7796 26.9188C33.9977 27.3899 34.2157 27.861 34.4194 28.3403C34.728 29.0645 34.9749 29.8071 35.1868 30.5642C35.2094 30.6465 35.2423 30.7288 35.23 30.8193V30.8213Z" fill="#FFB44C"/>
<path d="M35.23 30.8213C35.2423 30.7329 35.2094 30.6485 35.1868 30.5662C34.9749 29.8092 34.728 29.0665 34.4194 28.3424C34.2157 27.8631 33.9977 27.3919 33.7796 26.9208C33.5369 26.3962 33.2715 25.8819 33.0123 25.3656C32.858 25.0549 32.6852 24.7546 32.5206 24.4501C32.5103 24.4316 32.4897 24.4151 32.4753 24.3987C32.8292 24.1168 33.1851 23.835 33.5389 23.5532C34.1705 24.6353 34.7095 25.7585 35.0942 26.9538C35.3328 27.6923 35.5139 28.4452 35.5591 29.2229C35.5859 29.6837 35.5468 30.1363 35.374 30.5683C35.3369 30.6588 35.3102 30.7555 35.23 30.8213Z" fill="#F49919"/>
<path d="M4.62469 6.23339C4.59795 6.57077 4.64321 6.90405 4.67613 7.23937C4.60207 7.27023 4.62264 7.33401 4.62264 7.38955C4.62675 7.72488 4.68435 8.05403 4.744 8.38113C4.88184 9.12173 5.05672 9.85411 5.27273 10.5762C5.52165 11.4053 5.79937 12.224 6.0915 13.0366C6.1635 13.2362 6.26019 13.4296 6.29722 13.6415C6.21082 13.7752 6.11 13.8966 6.00508 14.0138C5.34677 12.6931 4.77898 11.3353 4.33256 9.92611C4.06101 9.06619 3.8553 8.18981 3.72775 7.29492C3.6722 6.89993 3.6434 6.50289 3.62077 6.10379C3.61665 6.02973 3.62283 5.95361 3.62489 5.87955C3.91701 6.02561 4.22147 6.14287 4.53828 6.22105C4.56503 6.22722 4.59589 6.22928 4.62264 6.23339H4.62469Z" fill="#FFB44C"/>
<path d="M6.2972 13.6414C6.26223 13.4296 6.16554 13.2362 6.09148 13.0366C5.7973 12.224 5.51958 11.4052 5.27271 10.5762C5.0567 9.8541 4.88182 9.12172 4.74399 8.38112C4.68433 8.05402 4.62673 7.72487 4.62262 7.38954C4.62262 7.33605 4.60205 7.27022 4.67611 7.23936C4.86332 8.40581 5.24185 9.51466 5.68004 10.605C6.01331 11.4361 6.38155 12.2549 6.7827 13.0551C6.63047 13.2588 6.46795 13.4522 6.2972 13.6414Z" fill="#F4991A"/>
<path d="M7.57055 16.5216C7.5685 16.5812 7.5973 16.6327 7.62198 16.6841C7.84005 17.1675 8.08075 17.6387 8.31733 18.1139C8.34613 18.1694 8.38316 18.225 8.37082 18.2928C8.22681 18.1324 8.13631 17.9369 8.02522 17.7559C7.81332 17.4041 7.60965 17.0462 7.40393 16.6923C7.45125 16.6286 7.50266 16.5668 7.56849 16.5216H7.57055Z" fill="#FFB44C"/>
<path d="M19.7145 24.4028C18.6159 24.4028 17.5153 24.4028 16.4167 24.4028C16.3756 24.4028 16.3365 24.4028 16.2954 24.4028C16.0115 24.3966 15.8428 24.2279 15.851 23.942C15.8613 23.4791 15.9127 23.0183 16.0197 22.5657C16.2295 21.6688 16.606 20.85 17.1964 20.1382C17.2849 20.0312 17.3795 19.9284 17.4803 19.8337C17.6696 19.6506 17.8609 19.6383 18.0707 19.8029C18.367 20.0333 18.6859 20.2122 19.05 20.3089C19.6301 20.4612 20.1959 20.3995 20.7534 20.1937C21.0208 20.095 21.2718 19.9654 21.5063 19.8049C21.7408 19.6445 21.9075 19.6589 22.1111 19.8522C22.6193 20.3377 22.9649 20.9282 23.2056 21.5824C23.4771 22.323 23.5965 23.0903 23.6232 23.8762C23.6376 24.2485 23.4195 24.4131 23.1007 24.409C21.9733 24.3987 20.8439 24.4049 19.7165 24.4049L19.7145 24.4028Z" fill="#11476B"/>
<path d="M21.9979 16.8178C21.9979 18.1776 20.9075 19.27 19.5477 19.27C18.1797 19.27 17.0873 18.1776 17.0873 16.8096C17.0873 15.4436 18.1838 14.3533 19.5539 14.3574C20.9096 14.3615 21.9979 15.4559 21.9958 16.8178H21.9979ZM19.5395 18.6199C20.5331 18.6241 21.3396 17.8238 21.3478 16.8281C21.356 15.8262 20.5496 15.0136 19.5477 15.0095C18.5541 15.0075 17.7477 15.8057 17.7394 16.8014C17.7312 17.8012 18.5376 18.6158 19.5395 18.6179V18.6199Z" fill="#14496C"/>
<path d="M5.15124 0.00205609C4.30778 0.00205609 3.51575 0.331212 2.91916 0.927807C2.32256 1.5244 1.99341 2.31849 1.99341 3.1599C1.99341 4.90031 3.41083 6.31568 5.15124 6.31568C5.99471 6.31568 6.78676 5.98652 7.38335 5.38993C7.97995 4.79333 8.3091 3.99924 8.3091 3.15784C8.3091 1.41743 6.89166 0 5.15124 0V0.00205609ZM6.7929 4.80156C6.35472 5.24181 5.77047 5.4825 5.15124 5.4825C3.87165 5.4825 2.82865 4.44155 2.82865 3.16195C2.82865 2.54273 3.06934 1.95848 3.50958 1.52029C3.94983 1.08004 4.53202 0.839347 5.15124 0.839347C6.43084 0.839347 7.47386 1.8803 7.47386 3.1599C7.47386 3.77912 7.23315 4.36132 6.7929 4.80156Z" fill="#FFB44B"/>
<path d="M52.592 24.9109C50.6932 24.9109 49.3148 24.3863 48.457 23.3392C47.5991 22.29 47.3687 20.8356 47.7637 18.9738C48.1834 17.0009 49.0371 15.4498 50.3249 14.3203C51.6128 13.1909 53.2935 12.6272 55.3651 12.6272C56.081 12.6272 56.7188 12.6684 57.2804 12.7466C57.842 12.8268 58.3625 12.9523 58.8439 13.1251L58.381 15.2708C57.8996 15.0856 57.3812 14.954 56.8278 14.8737C56.2724 14.7935 55.6922 14.7544 55.0895 14.7544C53.7461 14.7544 52.6846 15.1021 51.9069 15.7995C51.1293 16.4969 50.5944 17.5543 50.2982 18.9717C50.113 19.8234 50.0698 20.5311 50.1686 21.0989C50.2673 21.6667 50.5471 22.0925 51.01 22.3744C51.4729 22.6583 52.1661 22.8002 53.0919 22.8002C53.5116 22.8002 53.9251 22.7673 54.3303 22.6994C54.7377 22.6315 55.1141 22.5431 55.4598 22.432L56.0522 19.6568H53.277L53.6103 18.0665H58.4942L57.2557 23.8947C56.799 24.1539 56.1818 24.3884 55.4063 24.5982C54.6286 24.8081 53.6926 24.913 52.5941 24.913L52.592 24.9109Z" fill="#10466B"/>
<path d="M62.5757 24.8554C61.2982 24.8554 60.3786 24.5036 59.817 23.8C59.2554 23.0965 59.1258 22.0288 59.4282 20.5949C59.7553 19.0664 60.3148 17.9616 61.1048 17.2807C61.8948 16.5998 62.9975 16.2583 64.4128 16.2583C65.7253 16.2583 66.6552 16.5998 67.2024 17.2807C67.7497 17.9637 67.8607 19.0684 67.5336 20.5949C67.2312 22.0288 66.684 23.0965 65.8899 23.8C65.0958 24.5036 63.9911 24.8554 62.5757 24.8554ZM62.8987 23.366C63.6846 23.366 64.3058 23.1397 64.7625 22.6871C65.2192 22.2345 65.5525 21.5371 65.7603 20.5949C65.9167 19.879 65.9701 19.3132 65.9228 18.8977C65.8755 18.4842 65.7048 18.1879 65.4106 18.011C65.1164 17.8341 64.6762 17.7456 64.0899 17.7456C63.304 17.7456 62.6806 17.9596 62.2178 18.3875C61.7549 18.8154 61.4175 19.5519 61.2015 20.5949C61.002 21.57 61.0225 22.2756 61.2591 22.7118C61.4957 23.1479 62.0429 23.366 62.8967 23.366H62.8987Z" fill="#10466B"/>
<path d="M71.5103 24.8554C70.7944 24.8554 70.1834 24.7258 69.6773 24.4666C69.1733 24.2074 68.8092 23.835 68.589 23.3454C68.3689 22.8578 68.3319 22.2736 68.48 21.5906L69.5806 16.3858H71.3292L70.2554 21.461C70.1093 22.1687 70.1484 22.6624 70.3726 22.9442C70.5969 23.224 71.0844 23.366 71.8353 23.366C72.5348 23.366 73.0697 23.2096 73.442 22.8928C73.8123 22.578 74.0674 22.1008 74.2052 21.461L75.2791 16.3858H77.0278L75.9271 21.5906C75.6947 22.6871 75.2174 23.5058 74.4953 24.0448C73.7753 24.5838 72.7796 24.8533 71.5103 24.8533V24.8554Z" fill="#10466B"/>
<path d="M75.8346 24.7258L80.7822 16.3858H82.6996L84.1108 24.7258H82.3622L81.9857 22.7179H78.9163L77.7252 24.7258H75.8346ZM79.4738 21.3725H82.0248L81.4549 18.0192L79.4738 21.3725Z" fill="#10466B"/>
<path d="M85.3409 24.7258L87.1019 16.3858H88.6161L91.3871 21.9403L92.5659 16.3858H94.3146L92.5536 24.7258H91.0395L88.2684 19.1713L87.0896 24.7258H85.3409Z" fill="#10466B"/>
<path d="M96.0879 24.7258L97.565 17.7333H95.0017L95.2856 16.3858H102.149L101.865 17.7333H99.3136L97.8365 24.7258H96.0879Z" fill="#10466B"/>
<path d="M104.971 24.8554C104.255 24.8554 103.644 24.7258 103.138 24.4666C102.632 24.2074 102.27 23.835 102.05 23.3454C101.83 22.8578 101.793 22.2736 101.941 21.5906L103.041 16.3858H104.79L103.716 21.461C103.57 22.1687 103.607 22.6624 103.833 22.9442C104.058 23.224 104.545 23.366 105.296 23.366C105.995 23.366 106.53 23.2096 106.903 22.8928C107.273 22.578 107.528 22.1008 107.666 21.461L108.74 16.3858H110.488L109.388 21.5906C109.155 22.6871 108.678 23.5058 107.956 24.0448C107.236 24.5838 106.24 24.8533 104.971 24.8533V24.8554Z" fill="#10466B"/>
<path d="M110.151 24.7258L111.912 16.3858H113.609L114.994 21.3972L118.503 16.3858H120.316L118.555 24.7258H116.806L117.958 19.3009L115.16 23.2898H114.15L113.05 19.3009L111.898 24.7258H110.149H110.151Z" fill="#10466B"/>
</svg>
