<svg width="303" height="267" viewBox="0 0 303 267" fill="none" xmlns="http://www.w3.org/2000/svg">
<path d="M184.138 118.386C184.305 118.339 184.424 118.22 184.568 118.148C187.693 116.147 190.747 114.075 193.872 112.098C194.516 111.693 195.184 111.312 195.852 110.978C195.852 110.859 195.781 110.883 195.733 110.883C194.254 110.764 192.775 110.74 191.272 110.788C189.411 110.859 187.55 111.121 185.76 111.693C185.355 111.812 184.997 111.979 184.615 112.193C184.305 112.36 184.281 112.55 184.544 112.812C184.735 113.003 184.973 113.098 185.236 113.17C185.379 113.217 185.546 113.241 185.665 113.313C185.856 113.408 185.832 113.551 185.665 113.67C185.546 113.741 185.426 113.741 185.307 113.718C184.639 113.551 184.043 113.265 183.637 112.669C183.16 112.002 183.231 111.288 183.852 110.74C184.138 110.478 184.472 110.287 184.83 110.144C185.617 109.787 186.452 109.597 187.287 109.454C189.745 109.049 192.226 108.787 194.731 108.882C196.544 108.953 198.31 109.358 199.956 110.168C201.483 110.907 202.7 112.002 203.559 113.479C203.964 114.146 204.274 114.861 204.322 115.671C204.322 115.718 204.346 115.742 204.394 115.766C204.394 116.195 204.394 116.624 204.394 117.052C204.37 117.076 204.322 117.076 204.322 117.1C204.203 117.934 203.773 118.624 203.249 119.244C203.153 119.339 203.058 119.458 202.962 119.553C202.915 119.601 202.843 119.673 202.771 119.601C202.7 119.53 202.724 119.458 202.771 119.387C202.843 119.268 202.938 119.172 203.034 119.053C204.537 117.148 204.274 114.48 202.437 112.908C202.056 112.574 201.626 112.312 201.173 112.098C199.718 111.407 198.143 111.145 196.568 110.978C196.425 110.954 196.306 110.978 196.234 111.145C196.043 111.502 195.757 111.812 195.447 112.098C194.683 112.812 193.92 113.551 193.228 114.337C191.94 115.79 190.532 117.1 189.101 118.362C188.003 119.315 186.906 120.268 185.808 121.197C184.878 121.935 183.923 122.698 182.993 123.436C182.086 124.103 181.156 124.77 180.249 125.437C180.011 125.604 179.772 125.747 179.533 125.913C175.955 128.319 172.281 130.582 168.559 132.75C164.383 135.203 160.089 137.442 155.58 139.277C154.482 139.729 153.385 140.134 152.287 140.563C151.285 140.896 150.259 141.23 149.257 141.539C149.09 141.587 148.923 141.611 148.78 141.659C143.841 143.112 138.784 143.898 133.63 143.969C131.364 143.993 129.097 143.85 126.854 143.636C124.421 143.397 122.035 142.992 119.697 142.326C115.88 141.254 112.396 139.539 109.39 136.895C109.175 136.704 109.008 136.704 108.77 136.799C107.362 137.347 105.931 137.538 104.451 137.276C100.897 136.656 98.5823 134.608 97.461 131.178C97.294 130.677 97.2463 130.153 97.1508 129.653C97.1031 129.129 97.127 128.605 97.1508 128.081C97.2224 127.7 97.2701 127.319 97.3656 126.962C98.0575 124.151 99.7514 122.15 102.376 120.983C102.662 120.864 102.758 120.721 102.758 120.411C102.758 119.482 102.829 118.553 102.925 117.624C103.282 114.575 104.046 111.621 105.263 108.811C106.813 105.19 108.818 101.807 111.084 98.5917C111.704 97.7104 112.372 96.829 112.993 95.9715C113.279 95.6618 113.541 95.3522 113.756 94.9949C114.209 94.4947 114.639 93.9944 115.045 93.4466C115.164 93.3036 115.307 93.1845 115.426 93.0416C116.166 92.2317 116.882 91.4219 117.621 90.6358C121.534 86.5149 125.828 82.8466 130.433 79.5118C131.674 78.6066 132.938 77.7491 134.179 76.8677C135.873 75.772 137.567 74.6763 139.308 73.652C139.619 73.4615 139.953 73.2947 140.239 73.0565C140.406 73.0327 140.549 72.9136 140.692 72.8183C145.345 70.079 150.14 67.5779 155.15 65.5532C157.87 64.4575 160.662 63.5046 163.501 62.79C165.028 62.4089 166.555 62.1469 168.105 61.9325C171.183 61.4799 174.285 61.2179 177.386 61.2417C180.321 61.2656 183.136 61.8134 185.784 63.0997C187.24 63.8143 188.576 64.6718 189.721 65.839C191.343 67.4826 192.274 69.4359 192.608 71.6988C193.037 74.7001 192.393 77.1059 191.892 78.8448C191.439 80.3455 190.89 81.5603 190.461 82.4417C190.389 82.5846 190.27 82.7513 190.127 82.9657C190.055 83.0848 190.007 83.1324 189.983 83.1324C189.888 83.1086 190.222 81.9653 190.437 80.7028C190.604 79.7262 190.771 78.7495 190.675 77.5347C190.604 76.6534 190.532 75.9388 190.055 75.1289C189.649 74.4619 189.077 73.9141 188.289 73.4615C187.335 72.9136 186.285 72.6278 185.212 72.4372C183.017 72.0561 180.798 72.1037 178.579 72.2943C173.45 72.7469 168.487 74.0332 163.62 75.6291C159.23 77.0583 154.936 78.7495 150.689 80.5837C150.617 80.6313 150.522 80.679 150.45 80.7028C150.116 80.7981 149.806 80.941 149.52 81.1077C149.448 81.1315 149.377 81.1554 149.305 81.1792C147.444 82.0129 145.583 82.8704 143.746 83.7756C143.627 83.8232 143.507 83.8709 143.436 83.9662C143.269 83.9662 143.126 84.0853 142.983 84.1567C140.048 85.6097 137.161 87.1819 134.346 88.8731C129.717 91.6601 125.351 94.7805 121.343 98.4012C120.532 99.1396 119.745 99.8542 119.005 100.664C118.361 101.26 117.764 101.879 117.216 102.522C117.049 102.641 116.905 102.808 116.786 102.975C116.667 103.094 116.548 103.237 116.404 103.356C115.188 104.69 114.042 106.047 112.945 107.477C110.941 110.097 109.152 112.884 107.792 115.909C107.195 117.219 106.718 118.577 106.432 119.982C106.36 120.268 106.384 120.268 106.67 120.316C106.861 120.34 107.076 120.363 107.267 120.411C113.661 121.578 116.476 129.129 112.396 134.179C112.325 134.274 112.205 134.346 112.182 134.465C112.134 134.56 112.134 134.584 112.158 134.608C112.253 134.679 112.372 134.751 112.468 134.798C113.685 135.561 114.973 136.156 116.309 136.632C118.289 137.347 120.317 137.847 122.393 138.205C124.087 138.49 125.781 138.729 127.499 138.848C129.216 138.967 130.958 138.943 132.676 138.943C133.535 138.943 134.394 138.895 135.252 138.824C137.424 138.633 139.595 138.276 141.742 137.824C142.649 137.633 143.579 137.466 144.462 137.18C144.867 137.133 145.225 137.014 145.607 136.918C146.299 136.728 147.038 136.585 147.707 136.299C147.874 136.299 148.017 136.251 148.16 136.204C149.782 135.727 151.405 135.203 153.003 134.632C157.966 132.869 162.809 130.868 167.509 128.462C171.111 126.628 174.547 124.484 177.959 122.34C178.03 122.293 178.078 122.245 178.126 122.197C179.223 121.602 180.273 120.911 181.299 120.22C182.253 119.649 183.208 119.053 184.138 118.386ZM99.3935 128.843C99.3935 132.321 102.161 135.108 105.644 135.132C109.104 135.156 111.919 132.345 111.943 128.867C111.967 125.413 109.152 122.602 105.668 122.579C102.185 122.602 99.3935 125.366 99.3935 128.843Z" fill="#11476B"/>
<path d="M171.064 157.761C170.157 157.308 169.489 156.856 169.203 156.665C156.057 147.733 150.379 142.587 150.379 142.587C149.997 142.23 149.591 141.92 149.233 141.539C150.235 141.206 151.261 140.872 152.263 140.563C158.92 146.494 162.069 149.305 163.692 150.71C165.6 152.378 166.554 153.211 166.722 153.378C166.984 153.592 167.986 154.474 169.966 156.213C170.086 156.308 170.348 156.546 170.658 156.88C170.706 156.927 170.921 157.142 171.183 157.427C171.278 157.547 171.374 157.642 171.422 157.689C171.565 157.856 171.684 157.999 171.779 158.118C171.66 158.047 171.398 157.928 171.064 157.761Z" fill="#FFB44C"/>
<path d="M149.448 81.1554C149.758 80.9887 150.068 80.8458 150.379 80.7505C151.476 81.6795 152.55 82.6323 153.647 83.5613C156.295 85.8718 158.872 88.23 161.401 90.6597C165.242 94.328 168.893 98.163 172.4 102.165C176.074 106.381 179.366 110.883 182.396 115.576C182.993 116.505 183.565 117.434 184.162 118.362C183.231 119.029 182.277 119.625 181.299 120.197C181.203 120.006 181.084 119.839 180.989 119.649C180.154 118.148 179.271 116.671 178.317 115.218C177.004 113.217 175.668 111.24 174.261 109.287C172.782 107.262 171.278 105.285 169.728 103.308C168.272 101.474 166.793 99.6875 165.29 97.901C164.288 96.71 163.262 95.5428 162.236 94.3756C161.401 93.4466 160.566 92.4938 159.731 91.5887C159.015 90.8264 158.347 90.0403 157.608 89.3019C156.868 88.5397 156.176 87.7536 155.437 87.0152C154.148 85.7289 152.86 84.4426 151.572 83.1563C151.047 82.6323 150.569 82.0844 149.973 81.6318C149.758 81.5604 149.567 81.3936 149.448 81.1554Z" fill="#F49919"/>
<path d="M118.886 68.9357C118.886 67.8638 118.933 67.0539 118.957 66.506C118.957 66.3393 118.981 66.2678 118.981 66.1487C118.957 65.6009 118.743 65.2198 118.194 64.1955C118.122 64.0526 117.955 63.7667 117.764 63.4094C118.552 63.4809 119.673 63.6476 120.985 63.9096C122.655 64.2669 124.874 64.8863 128.119 66.2917C132.39 68.1258 136.374 70.4602 140.191 73.0566C139.905 73.2948 139.571 73.4615 139.261 73.6521C137.519 74.6764 135.825 75.7959 134.131 76.8678C134.012 76.7249 133.869 76.6534 133.726 76.5581C132.533 75.7483 131.292 74.9622 130.051 74.1999C127.57 72.6993 125.017 71.2939 122.321 70.1743C120.723 69.5074 119.148 69.031 119.148 69.031C119.053 69.0072 118.957 68.9595 118.886 68.9357Z" fill="#FFB44B"/>
<path d="M178.102 122.198C177.315 121.149 176.551 120.078 175.764 119.029C173.688 116.29 171.541 113.598 169.322 110.954C166.411 107.5 163.429 104.118 160.375 100.807C159.111 99.4493 157.846 98.0915 156.582 96.7576C154.53 94.59 152.43 92.47 150.283 90.3976C148.112 88.2776 145.893 86.2291 143.603 84.2282C143.531 84.1567 143.46 84.0853 143.388 83.99C143.46 83.8947 143.579 83.8471 143.698 83.7994C145.535 82.8943 147.396 82.0368 149.257 81.203C149.329 81.1792 149.4 81.1554 149.472 81.1316C149.591 81.3698 149.782 81.5365 149.949 81.6795C150.522 82.132 151.023 82.6799 151.548 83.2039C152.836 84.4902 154.124 85.7765 155.413 87.0628C156.152 87.8012 156.868 88.5873 157.584 89.3495C158.3 90.088 158.992 90.874 159.707 91.6363C160.566 92.5414 161.401 93.4704 162.212 94.4232C163.238 95.5904 164.264 96.7576 165.266 97.9486C166.769 99.7351 168.248 101.522 169.704 103.356C171.255 105.309 172.758 107.31 174.237 109.335C175.645 111.264 176.981 113.241 178.293 115.266C179.247 116.719 180.13 118.196 180.965 119.696C181.06 119.887 181.18 120.078 181.275 120.244C180.249 120.935 179.199 121.602 178.102 122.198Z" fill="#FFB44B"/>
<path d="M144.438 137.18C143.579 136.347 142.72 135.537 141.861 134.703C133.726 126.938 126.377 118.505 120.293 109.001C119.936 108.429 119.554 107.882 119.244 107.286C119.267 107.096 119.172 106.953 119.1 106.81C118.48 105.547 117.836 104.309 117.263 103.022C117.192 102.879 117.12 102.76 117.12 102.594C117.693 101.927 118.289 101.307 118.91 100.736C121.844 105.905 125.304 110.716 128.954 115.385C133.32 120.983 138.02 126.295 142.887 131.464C144.343 132.988 145.822 134.489 147.349 135.966C147.468 136.061 147.563 136.18 147.659 136.299C146.991 136.585 146.275 136.728 145.559 136.918C145.201 137.014 144.82 137.157 144.438 137.18Z" fill="#FFB44C"/>
<path d="M190.27 140.372C190.055 140.944 189.625 141.325 189.172 141.682C188.313 142.373 187.454 142.516 186.452 142.683C186.452 142.683 185.498 142.85 182.874 142.445C182.778 142.421 182.587 142.397 182.468 142.254C182.349 142.111 182.349 141.944 182.349 141.849C182.349 141.778 182.373 141.659 182.468 141.539C182.826 141.087 183.732 141.659 184.878 141.349C185.069 141.301 185.689 141.135 186.118 140.587C186.452 140.158 186.572 139.634 186.572 138.991C186.595 138.181 186.405 137.395 186.166 136.609C185.904 135.727 185.57 134.87 185.188 134.036C183.804 131.011 182.11 128.153 180.249 125.413C181.156 124.746 182.086 124.079 182.993 123.412C183.041 123.46 183.088 123.508 183.112 123.555C183.542 124.365 183.995 125.151 184.4 125.985C185.092 127.343 185.784 128.7 186.428 130.082C187.001 131.321 187.574 132.583 188.122 133.846C188.934 135.751 189.602 137.728 190.15 139.729C190.222 139.92 190.317 140.134 190.27 140.372Z" fill="#FFB44C"/>
<path d="M190.27 140.372C190.294 140.134 190.222 139.92 190.15 139.705C189.602 137.704 188.934 135.751 188.122 133.822C187.574 132.559 187.001 131.321 186.429 130.058C185.784 128.677 185.092 127.319 184.401 125.961C183.995 125.151 183.542 124.341 183.112 123.531C183.088 123.484 183.041 123.436 182.993 123.389C183.923 122.65 184.878 121.888 185.808 121.149C187.478 124.008 188.91 126.985 189.912 130.13C190.532 132.083 191.033 134.06 191.152 136.132C191.224 137.347 191.129 138.538 190.651 139.681C190.556 139.944 190.484 140.206 190.27 140.372Z" fill="#F49919"/>
<path d="M109.318 75.4385C109.247 76.3199 109.366 77.2012 109.462 78.1064C109.271 78.1778 109.318 78.3684 109.318 78.5113C109.318 79.3926 109.486 80.274 109.629 81.1315C109.987 83.0848 110.464 85.0142 111.036 86.9198C111.704 89.1113 112.42 91.2789 113.207 93.4227C113.398 93.9468 113.661 94.4708 113.756 95.0187C113.541 95.376 113.255 95.6856 112.993 95.9953C111.251 92.4937 109.748 88.9207 108.579 85.2048C107.863 82.9419 107.314 80.6075 106.98 78.2493C106.837 77.2012 106.766 76.1531 106.694 75.105C106.694 74.9145 106.694 74.7001 106.694 74.5095C107.458 74.8906 108.269 75.2003 109.104 75.4147C109.175 75.4147 109.247 75.4147 109.318 75.4385Z" fill="#FFB44C"/>
<path d="M113.756 94.9948C113.661 94.4231 113.398 93.9229 113.207 93.3989C112.42 91.2551 111.704 89.0874 111.036 86.896C110.464 84.9904 110.01 83.0609 109.629 81.1077C109.462 80.2502 109.319 79.3688 109.319 78.4875C109.319 78.3445 109.271 78.1778 109.462 78.0825C109.963 81.1553 110.965 84.0852 112.11 86.9674C112.993 89.1589 113.971 91.3265 115.021 93.4465C114.639 93.9944 114.209 94.4946 113.756 94.9948Z" fill="#F4991A"/>
<path d="M117.12 102.594C117.12 102.76 117.192 102.879 117.263 103.022C117.836 104.309 118.48 105.547 119.1 106.81C119.172 106.953 119.267 107.096 119.244 107.286C118.862 106.857 118.623 106.357 118.337 105.857C117.788 104.928 117.24 103.975 116.691 103.046C116.81 102.879 116.929 102.713 117.12 102.594Z" fill="#FFB44C"/>
<path d="M149.233 123.412C146.323 123.412 143.412 123.412 140.501 123.412C140.406 123.412 140.287 123.412 140.191 123.412C139.452 123.389 138.998 122.96 139.022 122.198C139.046 120.983 139.189 119.768 139.475 118.577C140.024 116.195 141.026 114.051 142.601 112.169C142.839 111.883 143.078 111.621 143.34 111.359C143.842 110.883 144.343 110.835 144.891 111.288C145.679 111.907 146.514 112.36 147.492 112.622C149.019 113.027 150.522 112.86 152.001 112.312C152.717 112.05 153.361 111.717 153.981 111.288C154.602 110.859 155.055 110.907 155.58 111.407C156.916 112.693 157.846 114.242 158.467 115.981C159.182 117.934 159.493 119.958 159.564 122.031C159.588 123.007 159.015 123.436 158.18 123.436C155.198 123.389 152.216 123.412 149.233 123.412Z" fill="#11476B"/>
<path d="M155.27 103.38C155.27 106.976 152.383 109.859 148.78 109.859C145.154 109.859 142.267 106.976 142.267 103.356C142.267 99.7351 145.178 96.8767 148.804 96.8767C152.407 96.9005 155.293 99.7828 155.27 103.38ZM148.78 108.144C151.405 108.144 153.552 106.047 153.552 103.403C153.576 100.759 151.428 98.6156 148.78 98.5918C146.156 98.5918 144.032 100.688 144.008 103.332C143.985 105.976 146.132 108.144 148.78 108.144Z" fill="#14496C"/>
<path d="M110.726 58.9788C108.507 58.9788 106.408 59.8363 104.809 61.4322C103.235 63.0044 102.352 65.1005 102.352 67.3396C102.352 71.9369 106.098 75.6767 110.702 75.6767C112.921 75.6767 115.021 74.8192 116.595 73.2232C118.17 71.6511 119.053 69.5549 119.053 67.3158C119.077 62.7185 115.331 58.9788 110.726 58.9788ZM115.068 71.6511C113.899 72.8183 112.372 73.4614 110.726 73.4614C107.338 73.4614 104.595 70.7221 104.595 67.3396C104.595 65.696 105.239 64.1716 106.384 63.0044C107.553 61.8372 109.08 61.194 110.726 61.194C114.114 61.194 116.858 63.9334 116.882 67.3158C116.858 68.9594 116.214 70.4839 115.068 71.6511Z" fill="#FFB44B"/>
<path d="M68.9742 191.109C63.9401 191.109 60.3137 189.727 58.0471 186.964C55.7806 184.201 55.1603 180.342 56.21 175.435C57.3075 170.219 59.5741 166.122 62.9858 163.144C66.3975 160.167 70.8352 158.666 76.3226 158.666C78.2074 158.666 79.9013 158.761 81.3805 158.976C82.8597 159.19 84.2435 159.524 85.508 159.976L84.2912 165.645C83.0267 165.145 81.643 164.812 80.1876 164.597C78.7084 164.383 77.1815 164.288 75.583 164.288C72.0281 164.288 69.2128 165.217 67.161 167.051C65.1092 168.885 63.6777 171.672 62.9142 175.435C62.4132 177.674 62.3178 179.556 62.5802 181.057C62.8426 182.558 63.5823 183.677 64.799 184.416C66.0158 185.154 67.8529 185.535 70.3103 185.535C71.4078 185.535 72.5052 185.44 73.5789 185.273C74.6525 185.106 75.6545 184.868 76.5611 184.559L78.1358 177.222H70.7874L71.6702 173.03H84.5775L81.3089 188.417C80.0922 189.108 78.4698 189.727 76.418 190.275C74.3662 190.847 71.8849 191.109 68.9742 191.109Z" fill="#10466B"/>
<path d="M95.3853 190.966C91.9975 190.966 89.5639 190.037 88.0847 188.179C86.6055 186.321 86.2476 183.51 87.0588 179.723C87.9177 175.697 89.3969 172.767 91.4964 170.981C93.596 169.171 96.5067 168.289 100.252 168.289C103.712 168.289 106.193 169.194 107.625 170.981C109.08 172.791 109.366 175.697 108.507 179.723C107.696 183.51 106.265 186.321 104.165 188.179C102.042 190.037 99.1311 190.966 95.3853 190.966ZM96.2442 187.036C98.3199 187.036 99.9661 186.44 101.183 185.249C102.4 184.058 103.282 182.2 103.831 179.723C104.237 177.841 104.38 176.341 104.261 175.245C104.141 174.149 103.688 173.363 102.901 172.91C102.113 172.434 100.968 172.22 99.4174 172.22C97.3417 172.22 95.6955 172.791 94.4787 173.911C93.2619 175.03 92.3553 176.984 91.7827 179.747C91.2579 182.319 91.3056 184.177 91.9259 185.345C92.5223 186.464 93.9777 187.036 96.2442 187.036Z" fill="#10466B"/>
<path d="M119.005 190.966C117.12 190.966 115.498 190.633 114.162 189.942C112.826 189.251 111.871 188.275 111.275 186.988C110.702 185.702 110.607 184.154 110.989 182.343L113.899 168.599H118.528L115.689 182.01C115.307 183.868 115.402 185.178 115.999 185.916C116.595 186.655 117.884 187.036 119.864 187.036C121.725 187.036 123.133 186.631 124.111 185.797C125.089 184.964 125.757 183.701 126.139 182.01L128.978 168.599H133.606L130.696 182.343C130.075 185.249 128.811 187.393 126.902 188.822C124.993 190.252 122.369 190.966 119.005 190.966Z" fill="#10466B"/>
<path d="M130.457 190.633L143.531 168.623H148.589L152.311 190.633H147.683L146.681 185.345H138.569L135.42 190.633H130.457ZM140.072 181.772H146.824L145.321 172.91L140.072 181.772Z" fill="#10466B"/>
<path d="M155.58 190.633L160.232 168.623H164.24L171.565 183.296L174.69 168.623H179.319L174.666 190.633H170.658L163.334 175.959L160.208 190.633H155.58Z" fill="#10466B"/>
<path d="M184.019 190.633L187.932 172.172H181.156L181.919 168.623H200.075L199.312 172.172H192.536L188.623 190.633H184.019Z" fill="#10466B"/>
<path d="M207.495 190.966C205.61 190.966 203.988 190.633 202.652 189.942C201.316 189.251 200.362 188.275 199.765 186.988C199.193 185.702 199.097 184.154 199.479 182.343L202.39 168.599H207.018L204.179 182.01C203.797 183.868 203.893 185.178 204.489 185.916C205.086 186.655 206.374 187.036 208.354 187.036C210.215 187.036 211.623 186.631 212.601 185.797C213.579 184.964 214.247 183.701 214.629 182.01L217.468 168.599H222.097L219.186 182.343C218.566 185.249 217.301 187.393 215.392 188.822C213.484 190.252 210.859 190.966 207.495 190.966Z" fill="#10466B"/>
<path d="M221.214 190.633L225.866 168.623H230.352L234.026 181.867L243.307 168.623H248.102L243.45 190.633H238.821L241.875 176.317L234.479 186.845H231.807L228.896 176.317L225.842 190.633H221.214Z" fill="#10466B"/>
<path d="M162.857 209.999L169.99 197.993H172.758L174.786 209.999H172.257L171.708 207.116H167.294L165.576 209.999H162.857ZM168.105 205.163H171.78L170.968 200.328L168.105 205.163Z" fill="#FFB44B"/>
<path d="M179.128 210.118C178.579 210.118 178.102 210.07 177.649 209.999C177.195 209.927 176.814 209.808 176.527 209.665L176.861 208.117C177.219 208.284 177.601 208.403 178.03 208.498C178.46 208.593 178.889 208.641 179.319 208.641C179.939 208.641 180.392 208.593 180.703 208.474C181.013 208.355 181.204 208.093 181.299 207.712C181.347 207.45 181.323 207.259 181.251 207.116C181.156 206.973 180.989 206.83 180.703 206.711C180.44 206.592 180.035 206.473 179.51 206.306C178.675 206.068 178.126 205.759 177.84 205.401C177.553 205.044 177.482 204.544 177.625 203.877C177.792 203.115 178.174 202.519 178.77 202.09C179.366 201.661 180.273 201.471 181.466 201.471C181.967 201.471 182.444 201.495 182.85 201.566C183.279 201.638 183.613 201.709 183.852 201.804L183.518 203.353C182.874 203.091 182.158 202.948 181.371 202.948C180.822 202.948 180.369 202.995 180.035 203.115C179.7 203.234 179.486 203.472 179.414 203.853C179.366 204.067 179.39 204.234 179.462 204.377C179.533 204.496 179.724 204.615 179.963 204.734C180.225 204.83 180.583 204.949 181.037 205.092C181.681 205.282 182.182 205.497 182.492 205.735C182.802 205.997 183.017 206.283 183.088 206.592C183.16 206.926 183.16 207.283 183.065 207.664C182.969 208.141 182.778 208.569 182.492 208.95C182.229 209.308 181.824 209.594 181.275 209.808C180.726 210.022 180.011 210.118 179.128 210.118Z" fill="#FFB44B"/>
<path d="M197.618 209.951C196.33 209.951 195.399 209.594 194.827 208.879C194.254 208.164 194.135 207.092 194.445 205.663C194.779 204.115 195.351 203.019 196.139 202.328C196.926 201.638 198.047 201.304 199.479 201.304C200.791 201.304 201.745 201.638 202.294 202.328C202.843 203.019 202.962 204.139 202.628 205.663C202.318 207.116 201.769 208.188 200.958 208.879C200.171 209.594 199.049 209.951 197.618 209.951ZM197.952 208.45C198.739 208.45 199.36 208.212 199.837 207.759C200.29 207.307 200.624 206.592 200.839 205.663C201.006 204.949 201.054 204.377 201.006 203.948C200.958 203.519 200.791 203.234 200.481 203.043C200.195 202.876 199.741 202.781 199.145 202.781C198.358 202.781 197.713 202.995 197.26 203.424C196.783 203.853 196.449 204.591 196.234 205.639C196.043 206.616 196.043 207.331 196.282 207.759C196.544 208.236 197.093 208.45 197.952 208.45Z" fill="#FFB44B"/>
<path d="M206.636 209.951C205.921 209.951 205.3 209.832 204.799 209.57C204.298 209.308 203.917 208.927 203.702 208.45C203.487 207.95 203.439 207.378 203.583 206.687L204.704 201.447H206.469L205.396 206.568C205.253 207.283 205.276 207.783 205.515 208.069C205.73 208.355 206.231 208.498 206.994 208.498C207.71 208.498 208.235 208.331 208.617 208.021C208.998 207.712 209.237 207.235 209.38 206.592L210.454 201.471H212.219L211.098 206.711C210.859 207.807 210.382 208.641 209.666 209.189C208.951 209.736 207.925 209.951 206.636 209.951Z" fill="#FFB44B"/>
<path d="M187.908 209.927L188.838 205.496L186.142 197.922H188.695L190.508 203.353L194.588 197.922H197.284L191.367 205.496L190.437 209.927H187.908Z" fill="#FFB44B"/>
<path d="M220.116 209.855C218.208 209.855 216.8 209.331 215.941 208.283C215.082 207.235 214.844 205.758 215.249 203.877C215.679 201.9 216.538 200.327 217.826 199.184C219.114 198.041 220.832 197.469 222.908 197.469C223.624 197.469 224.268 197.517 224.84 197.588C225.413 197.66 225.938 197.802 226.415 197.969L225.938 200.137C225.461 199.946 224.936 199.827 224.363 199.732C223.814 199.66 223.218 199.613 222.598 199.613C221.238 199.613 220.164 199.97 219.377 200.661C218.589 201.352 218.041 202.424 217.754 203.853C217.564 204.71 217.516 205.425 217.635 205.997C217.731 206.568 218.017 206.997 218.494 207.283C218.971 207.569 219.663 207.712 220.594 207.712C221.023 207.712 221.429 207.688 221.834 207.616C222.24 207.545 222.621 207.45 222.979 207.354L223.576 204.567H220.784L221.118 202.971H226.033L224.793 208.831C224.339 209.093 223.719 209.331 222.932 209.546C222.168 209.76 221.238 209.855 220.116 209.855Z" fill="#FFB44B"/>
<path d="M230.185 209.808C228.896 209.808 227.966 209.451 227.393 208.736C226.821 208.021 226.701 206.949 227.011 205.52C227.345 203.972 227.918 202.876 228.705 202.185C229.493 201.495 230.614 201.161 232.045 201.161C233.358 201.161 234.312 201.495 234.861 202.185C235.409 202.876 235.529 203.996 235.195 205.52C234.885 206.973 234.336 208.045 233.525 208.736C232.737 209.451 231.616 209.808 230.185 209.808ZM230.519 208.307C231.306 208.307 231.926 208.069 232.403 207.616C232.857 207.164 233.191 206.449 233.405 205.52C233.572 204.806 233.62 204.234 233.572 203.805C233.525 203.376 233.358 203.091 233.048 202.9C232.761 202.733 232.308 202.638 231.711 202.638C230.924 202.638 230.28 202.852 229.827 203.281C229.373 203.71 229.015 204.448 228.801 205.496C228.61 206.473 228.61 207.188 228.848 207.616C229.111 208.093 229.66 208.307 230.519 208.307Z" fill="#FFB44B"/>
<path d="M238.249 209.879L238.63 208.045H241.279L240.897 209.879H238.249ZM239.108 206.735L240.229 200.971L240.873 197.898H243.402L242.758 200.971L241.422 206.735H239.108Z" fill="#FFB44B"/>
</svg>
