<svg width="191" height="221" viewBox="0 0 191 221" fill="none" xmlns="http://www.w3.org/2000/svg">
<g opacity="0.7">
<path d="M216.526 148.069C216.944 147.965 217.258 147.677 217.611 147.455C225.365 142.473 232.988 137.282 240.781 132.365C242.389 131.345 244.024 130.378 245.711 129.554C245.711 129.266 245.527 129.332 245.41 129.319C241.722 129.005 238.022 128.94 234.335 129.096C229.68 129.293 225.09 129.933 220.631 131.345C219.651 131.659 218.709 132.078 217.807 132.575C217.022 133.006 216.996 133.49 217.65 134.117C218.121 134.588 218.735 134.824 219.35 135.007C219.716 135.124 220.095 135.203 220.435 135.36C220.893 135.582 220.867 135.948 220.435 136.223C220.161 136.393 219.847 136.419 219.559 136.34C217.912 135.896 216.395 135.203 215.375 133.751C214.198 132.078 214.394 130.326 215.885 128.926C216.591 128.273 217.428 127.815 218.304 127.436C220.265 126.573 222.344 126.05 224.436 125.697C230.569 124.69 236.741 124.01 242.978 124.271C247.515 124.455 251.869 125.474 255.962 127.488C259.754 129.358 262.787 132.052 264.919 135.713C265.899 137.399 266.71 139.165 266.815 141.165C266.815 141.296 266.893 141.361 266.998 141.414V144.617C266.998 144.617 266.841 144.709 266.841 144.761C266.566 146.84 265.494 148.527 264.173 150.096C263.951 150.358 263.716 150.606 263.467 150.841C263.337 150.972 263.167 151.116 262.984 150.933C262.814 150.776 262.892 150.567 262.997 150.41C263.193 150.135 263.428 149.874 263.637 149.612C267.364 144.879 266.71 138.21 262.134 134.327C261.166 133.503 260.107 132.836 258.969 132.3C255.347 130.574 251.464 129.894 247.502 129.515C247.123 129.476 246.874 129.541 246.678 129.92C246.194 130.836 245.462 131.568 244.717 132.274C242.808 134.078 240.925 135.909 239.186 137.883C235.995 141.492 232.491 144.748 228.895 147.925C226.189 150.318 223.417 152.646 220.684 154.999C218.356 156.856 216.016 158.713 213.688 160.57C211.413 162.23 209.151 163.904 206.876 165.564C206.274 165.957 205.673 166.362 205.071 166.754C196.18 172.769 187.014 178.366 177.769 183.805C167.374 189.938 156.678 195.508 145.485 200.071C142.779 201.17 140.033 202.19 137.3 203.249C134.789 204.072 132.279 204.883 129.768 205.707C129.363 205.812 128.958 205.89 128.552 206.008C116.248 209.617 103.682 211.604 90.855 211.787C85.2063 211.866 79.5838 211.513 73.9743 210.963C67.9464 210.362 61.9838 209.368 56.139 207.721C46.6199 205.053 37.9638 200.764 30.4976 194.2C29.9615 193.73 29.5692 193.756 28.9807 193.991C25.5026 195.351 21.8937 195.809 18.2195 195.181C9.35414 193.651 3.60086 188.512 0.841885 179.961C0.436538 178.719 0.331897 177.424 0.070383 176.169C-0.0211469 174.874 -0.0211596 173.567 0.0572946 172.272C0.227279 171.344 0.344979 170.39 0.567266 169.474C2.26711 162.439 6.47747 157.497 13.0545 154.568C13.7476 154.254 14.009 153.94 14.009 153.156C14.009 150.828 14.1791 148.514 14.4406 146.199C15.3036 138.589 17.2126 131.241 20.2462 124.206C24.1297 115.184 29.0984 106.776 34.721 98.7477C36.277 96.5379 37.8984 94.3804 39.4937 92.1968C40.1867 91.4253 40.8535 90.6277 41.4158 89.7516C42.5403 88.5094 43.6125 87.2411 44.6062 85.8943C44.92 85.5674 45.247 85.2405 45.5477 84.9005C47.3652 82.8999 49.1435 80.8601 51.0003 78.8857C60.7024 68.5951 71.4114 59.4552 82.8527 51.1521C85.9385 48.9162 89.0767 46.7718 92.2018 44.5751C96.4253 41.8553 100.636 39.1225 104.951 36.5335C105.735 36.0628 106.559 35.6574 107.252 35.069C107.683 34.9906 107.997 34.7029 108.363 34.4937C119.948 27.6551 131.847 21.4442 144.348 16.41C151.134 13.6772 158.038 11.3105 165.138 9.5453C168.904 8.60384 172.735 7.97619 176.579 7.40086C184.242 6.26328 191.93 5.62258 199.684 5.70104C206.98 5.77949 213.989 7.11317 220.579 10.3167C224.201 12.0689 227.535 14.2525 230.373 17.1423C234.387 21.2219 236.715 26.1122 237.538 31.7609C238.637 39.2141 237.015 45.255 235.734 49.57C234.622 53.3227 233.263 56.3432 232.151 58.5268C231.955 58.8799 231.68 59.3244 231.314 59.8213C231.118 60.109 231.014 60.2528 230.974 60.2397C230.739 60.1744 231.55 57.3108 232.086 54.2119C232.504 51.7667 232.936 49.3607 232.674 46.3403C232.478 44.1435 232.321 42.3391 231.157 40.3647C230.177 38.704 228.712 37.318 226.764 36.2197C224.384 34.8729 221.782 34.1407 219.102 33.6961C213.61 32.7808 208.105 32.8461 202.587 33.3299C189.812 34.4544 177.495 37.6842 165.347 41.633C154.403 45.1766 143.72 49.3869 133.168 53.9503C132.959 54.0419 132.763 54.1595 132.566 54.2641C131.743 54.4864 130.984 54.8787 130.226 55.271C130.043 55.3364 129.86 55.3756 129.69 55.4541C125.035 57.52 120.406 59.6514 115.843 61.9135C115.568 62.0442 115.267 62.1357 115.084 62.3973C114.653 62.4234 114.3 62.6849 113.934 62.868C106.611 66.503 99.4196 70.4127 92.4241 74.6492C80.9305 81.6055 70.0254 89.3463 60.0879 98.4077C58.0873 100.225 56.0998 102.056 54.2823 104.056C52.7001 105.521 51.2095 107.064 49.7973 108.711C49.3527 109.012 49.0258 109.417 48.712 109.836C48.3982 110.163 48.0844 110.477 47.7967 110.803C44.7893 114.099 41.9126 117.498 39.206 121.042C34.198 127.593 29.7391 134.497 26.3787 142.054C24.9273 145.336 23.7243 148.697 23.0051 152.214C22.8613 152.933 22.8613 152.933 23.6197 153.038C24.1035 153.103 24.6004 153.169 25.0842 153.247C40.9712 156.137 47.9667 174.94 37.8461 187.545C37.663 187.78 37.3884 187.95 37.3361 188.264C37.3754 188.342 37.4016 188.421 37.4539 188.46C37.7023 188.63 37.9637 188.8 38.2122 188.957C41.2196 190.84 44.4362 192.317 47.7705 193.533C52.687 195.325 57.7473 196.541 62.886 197.43C67.0833 198.162 71.3199 198.711 75.5695 199.012C79.8714 199.326 84.1733 199.248 88.4752 199.274C90.6065 199.274 92.7379 199.143 94.8561 198.947C100.283 198.45 105.657 197.587 110.979 196.475C113.241 196.005 115.529 195.56 117.752 194.88C118.732 194.789 119.674 194.462 120.615 194.2C122.367 193.717 124.146 193.363 125.832 192.657C126.225 192.684 126.578 192.527 126.944 192.422C130.997 191.232 135.012 189.925 138.987 188.512C151.343 184.145 163.412 179.111 175.089 173.148C184.046 168.572 192.571 163.25 201.083 157.915C201.24 157.811 201.371 157.667 201.502 157.549C204.221 156.045 206.823 154.359 209.399 152.62C211.845 151.194 214.224 149.691 216.539 148.043L216.526 148.069ZM5.66682 174.129C5.65375 182.785 12.5708 189.755 21.24 189.807C29.8307 189.859 36.8393 182.89 36.9177 174.195C36.9962 165.617 29.9614 158.556 21.3184 158.53C12.6623 158.504 5.6799 165.447 5.66682 174.116V174.129Z" fill="#D9D9D9"/>
<path d="M184.006 246.15C181.731 245 180.11 243.915 179.404 243.431C146.675 221.189 132.606 208.349 132.606 208.349C131.638 207.486 130.631 206.675 129.755 205.72C132.266 204.897 134.776 204.086 137.287 203.262C153.828 218.064 161.673 225.033 165.7 228.564C170.447 232.735 172.814 234.827 173.258 235.193C173.925 235.755 176.396 237.926 181.352 242.267C181.64 242.515 182.294 243.091 183.091 243.902C183.209 244.019 183.719 244.542 184.399 245.288C184.647 245.575 184.856 245.811 184.987 245.954C185.327 246.36 185.628 246.713 185.863 247C185.51 246.844 184.843 246.543 184.033 246.137L184.006 246.15Z" fill="#D9D9D9"/>
<path d="M130.2 55.284C130.958 54.8917 131.717 54.5125 132.54 54.2771C135.247 56.6177 137.967 58.932 140.661 61.2857C147.225 67.0259 153.632 72.9362 159.921 78.9902C169.453 88.1563 178.58 97.7015 187.262 107.678C196.415 118.178 204.627 129.384 212.145 141.087C213.623 143.388 215.061 145.729 216.513 148.056C214.211 149.691 211.818 151.207 209.373 152.633C209.112 152.175 208.837 151.717 208.576 151.247C206.471 147.507 204.274 143.819 201.933 140.224C198.677 135.229 195.33 130.299 191.826 125.474C188.165 120.44 184.412 115.484 180.554 110.594C176.959 106.044 173.271 101.559 169.532 97.1262C167.034 94.1711 164.484 91.2683 161.922 88.3524C159.869 86.0118 157.79 83.6844 155.671 81.4223C153.906 79.5394 152.206 77.5911 150.415 75.7344C148.597 73.8384 146.845 71.8901 144.989 70.0333C141.785 66.8298 138.595 63.6132 135.378 60.4227C134.083 59.1413 132.867 57.7683 131.416 56.6438C130.945 56.2777 130.475 55.8593 130.2 55.297V55.284Z" fill="#D9D9D9"/>
<path d="M54.1778 24.8573C54.1778 22.1768 54.2824 20.1762 54.3739 18.8163C54.4001 18.411 54.4131 18.2148 54.4 17.901C54.3347 16.515 53.8247 15.5997 52.4649 13.063C52.2687 12.6969 51.9026 12.0039 51.4188 11.0886C53.3802 11.2978 56.1653 11.6508 59.4342 12.3438C63.6185 13.2199 69.0841 14.776 77.1649 18.2672C87.7562 22.8437 97.6676 28.6493 107.213 35.1087C106.507 35.7102 105.683 36.1024 104.911 36.5732C100.597 39.1491 96.3861 41.8949 92.1627 44.6147C91.8881 44.2747 91.522 44.0786 91.182 43.8432C88.2007 41.8034 85.1411 39.8552 82.0552 37.9854C75.8573 34.2326 69.5156 30.7675 62.8339 27.9693C58.8458 26.2956 54.9231 25.1057 54.9231 25.1057C54.6093 25.0011 54.3478 24.9227 54.1778 24.8704V24.8573Z" fill="#D9D9D9"/>
<path d="M201.488 157.575C199.54 154.934 197.618 152.292 195.657 149.677C190.505 142.826 185.144 136.144 179.626 129.58C172.395 120.976 164.955 112.555 157.345 104.291C154.22 100.905 151.069 97.5314 147.904 94.1971C142.792 88.8099 137.548 83.5404 132.227 78.3493C126.826 73.0798 121.308 67.941 115.607 62.9984C115.411 62.8284 115.241 62.6192 115.058 62.4231C115.241 62.1616 115.555 62.07 115.817 61.9393C120.38 59.6903 125.009 57.5589 129.664 55.4799C129.834 55.4014 130.017 55.3492 130.2 55.2969C130.474 55.8591 130.945 56.2775 131.416 56.6436C132.867 57.7681 134.083 59.1411 135.378 60.4225C138.594 63.613 141.785 66.8296 144.988 70.0331C146.845 71.8899 148.597 73.8513 150.415 75.7342C152.206 77.591 153.906 79.5392 155.671 81.4221C157.803 83.6973 159.869 86.0247 161.921 88.3522C164.484 91.255 167.047 94.1579 169.531 97.126C173.271 101.572 176.959 106.044 180.554 110.594C184.412 115.471 188.164 120.44 191.826 125.474C195.33 130.299 198.677 135.242 201.933 140.224C204.274 143.819 206.483 147.507 208.576 151.246C208.837 151.704 209.112 152.162 209.373 152.632C206.797 154.371 204.195 156.058 201.475 157.562L201.488 157.575Z" fill="#D9D9D9"/>
<path d="M117.739 194.894C115.594 192.841 113.45 190.788 111.306 188.735C91.0382 169.383 72.7584 148.357 57.6559 124.677C56.7537 123.265 55.8384 121.866 55.067 120.375C55.1323 119.931 54.897 119.578 54.7139 119.199C53.1579 116.073 51.5626 112.975 50.1374 109.784C49.9805 109.444 49.7844 109.104 49.7975 108.712C51.1966 107.077 52.6872 105.521 54.2825 104.057C61.5787 116.95 70.1956 128.927 79.2963 140.577C90.1753 154.516 101.826 167.788 113.973 180.628C117.582 184.446 121.295 188.173 125.048 191.834C125.323 192.096 125.571 192.383 125.833 192.658C124.146 193.364 122.368 193.717 120.615 194.201C119.674 194.462 118.733 194.789 117.752 194.881L117.739 194.894Z" fill="#D9D9D9"/>
<path d="M30.3929 41.0183C30.2229 43.2411 30.5106 45.4378 30.7198 47.6346C30.236 47.8307 30.3667 48.2622 30.3667 48.6152C30.3929 50.812 30.7721 52.9826 31.1644 55.1401C32.0666 60.0173 33.2173 64.8292 34.6425 69.5887C36.277 75.0413 38.1076 80.4285 40.0297 85.7764C40.5004 87.0971 41.1412 88.3523 41.3765 89.7514C40.8143 90.6275 40.1474 91.4251 39.4544 92.1966C35.1263 83.5012 31.3736 74.5705 28.4577 65.2998C26.6664 59.6381 25.3064 53.8717 24.4827 47.9876C24.1166 45.3856 23.9335 42.7704 23.7766 40.1553C23.7505 39.6584 23.7897 39.1746 23.8028 38.6777C25.7249 39.6323 27.7255 40.4038 29.8176 40.9268C30.0006 40.966 30.1968 40.9791 30.3798 41.0052L30.3929 41.0183Z" fill="#D9D9D9"/>
<path d="M41.3896 89.7646C41.1542 88.3655 40.5135 87.0972 40.0428 85.7896C38.1076 80.4416 36.2901 75.0544 34.6556 69.6019C33.2304 64.8423 32.0797 60.0304 31.1775 55.1531C30.7852 52.9957 30.406 50.8382 30.3799 48.6284C30.3799 48.2753 30.2491 47.8438 30.7329 47.6477C31.9751 55.3231 34.4464 62.6194 37.3361 69.798C39.5329 75.2767 41.9519 80.6508 44.5931 85.9203C43.5994 87.2671 42.5272 88.5355 41.4027 89.7777L41.3896 89.7646Z" fill="#D9D9D9"/>
<path d="M49.7844 108.724C49.7714 109.116 49.9675 109.456 50.1244 109.796C51.5627 112.973 53.1449 116.086 54.7009 119.211C54.884 119.577 55.1324 119.93 55.0539 120.387C54.1124 119.328 53.511 118.047 52.7787 116.844C51.3796 114.53 50.0459 112.176 48.686 109.848C48.9999 109.43 49.3268 109.025 49.7713 108.724H49.7844Z" fill="#D9D9D9"/>
<path d="M129.69 160.583C122.459 160.583 115.228 160.583 107.984 160.583C107.723 160.583 107.448 160.583 107.187 160.583C105.317 160.543 104.219 159.432 104.258 157.549C104.336 154.502 104.663 151.469 105.369 148.501C106.755 142.591 109.24 137.216 113.123 132.522C113.698 131.816 114.326 131.149 114.98 130.509C116.222 129.306 117.49 129.227 118.863 130.299C120.812 131.816 122.917 132.993 125.31 133.621C129.128 134.614 132.854 134.222 136.515 132.862C138.268 132.208 139.928 131.359 141.471 130.299C143.014 129.253 144.112 129.332 145.459 130.613C148.807 133.804 151.082 137.687 152.664 142.002C154.455 146.866 155.227 151.927 155.423 157.091C155.514 159.55 154.076 160.622 151.984 160.596C144.557 160.53 137.13 160.57 129.716 160.57L129.69 160.583Z" fill="#D9D9D9"/>
<path d="M144.714 110.673C144.714 119.63 137.535 126.808 128.592 126.808C119.582 126.808 112.391 119.63 112.404 110.621C112.404 101.625 119.622 94.459 128.644 94.4852C137.562 94.5113 144.727 101.716 144.714 110.673ZM128.539 122.519C135.077 122.546 140.386 117.276 140.438 110.725C140.49 104.135 135.182 98.7871 128.592 98.761C122.054 98.7479 116.745 103.991 116.693 110.555C116.64 117.132 121.949 122.493 128.539 122.519Z" fill="#D9D9D9"/>
<path d="M33.8452 0.0130885C28.3011 0.0130885 23.0839 2.1837 19.1481 6.10641C15.2254 10.0422 13.0548 15.2594 13.0548 20.8035C13.0548 32.2578 22.3778 41.5677 33.8321 41.5677C39.3762 41.5677 44.5934 39.3971 48.5161 35.4744C52.4388 31.5386 54.6094 26.3214 54.6094 20.7773C54.6094 9.323 45.2733 0 33.819 0L33.8452 0.0130885ZM44.6458 31.5909C41.756 34.4807 37.9248 36.0759 33.8452 36.0759C25.4245 36.0759 18.5597 29.2242 18.5597 20.8035C18.5597 16.7239 20.1549 12.8927 23.0447 10.0029C25.9344 7.11321 29.7656 5.51799 33.8452 5.51799C42.266 5.51799 49.1307 12.3696 49.1307 20.7904C49.1307 24.8569 47.5355 28.7012 44.6458 31.5909Z" fill="#D9D9D9"/>
</g>
</svg>
