<svg width="23" height="24" viewBox="0 0 23 24" fill="none" xmlns="http://www.w3.org/2000/svg">
<path d="M18.092 0.806885H5.40701C4.12071 0.806885 2.88709 1.31787 1.97754 2.22742C1.06799 3.13697 0.557007 4.37058 0.557007 5.65688L0.557007 18.3419C0.557007 19.6282 1.06799 20.8618 1.97754 21.7714C2.88709 22.6809 4.12071 23.1919 5.40701 23.1919H18.092C19.3783 23.1919 20.6119 22.6809 21.5215 21.7714C22.431 20.8618 22.942 19.6282 22.942 18.3419V5.65688C22.942 4.37058 22.431 3.13697 21.5215 2.22742C20.6119 1.31787 19.3783 0.806885 18.092 0.806885V0.806885ZM15.414 16.3129H7.95201C7.148 16.2846 6.38815 15.9382 5.83961 15.3497C5.29106 14.7612 4.99876 13.9789 5.02701 13.1749C5.05525 12.3709 5.40173 11.611 5.99022 11.0625C6.57871 10.5139 7.361 10.2216 8.16501 10.2499C8.41933 9.50393 8.90068 8.85624 9.5416 8.3976C10.1825 7.93897 10.9509 7.69237 11.739 7.69237C12.5271 7.69237 13.2955 7.93897 13.9364 8.3976C14.5773 8.85624 15.0587 9.50393 15.313 10.2499H15.436C15.8438 10.2375 16.2499 10.3075 16.6301 10.4556C17.0103 10.6036 17.3567 10.8268 17.6487 11.1117C17.9408 11.3966 18.1724 11.7374 18.3298 12.1139C18.4872 12.4903 18.5671 12.8945 18.5648 13.3025C18.5626 13.7105 18.4781 14.1138 18.3165 14.4884C18.1549 14.8631 17.9194 15.2013 17.6242 15.4829C17.329 15.7645 16.9801 15.9838 16.5983 16.1276C16.2165 16.2714 15.8096 16.3368 15.402 16.3199L15.414 16.3129Z" fill="#1C7EEF"/>
</svg>
