<svg width="21" height="22" viewBox="0 0 21 22" fill="none" xmlns="http://www.w3.org/2000/svg">
<path d="M5.5 7.25488H1.5C1.22386 7.25488 1 7.47874 1 7.75488V20.7549C1 21.031 1.22386 21.2549 1.5 21.2549H5.5C5.77614 21.2549 6 21.031 6 20.7549V7.75488C6 7.47874 5.77614 7.25488 5.5 7.25488Z" fill="#0077B7"/>
<path d="M2.99001 5.2548C3.4853 5.25877 3.9706 5.11552 4.38434 4.84323C4.79809 4.57095 5.12163 4.1819 5.31392 3.72545C5.50621 3.269 5.55858 2.76572 5.46439 2.27945C5.37019 1.79319 5.13368 1.34587 4.78486 0.994231C4.43604 0.642596 3.99063 0.4025 3.50514 0.304405C3.01965 0.20631 2.51596 0.254636 2.05798 0.443253C1.6 0.631871 1.20836 0.952277 0.932765 1.36382C0.657167 1.77537 0.510026 2.2595 0.51001 2.7548C0.509989 3.41439 0.770634 4.04727 1.23516 4.51554C1.69968 4.98381 2.33044 5.24953 2.99001 5.2548Z" fill="#0077B7"/>
<path d="M17.01 21.2549H20.01C20.1426 21.2549 20.2698 21.2022 20.3636 21.1084C20.4573 21.0147 20.51 20.8875 20.51 20.7549V12.3549C20.51 8.58487 18.38 6.75487 15.4 6.75487C14.8099 6.73387 14.222 6.83694 13.6742 7.05743C13.1264 7.27792 12.631 7.61091 12.22 8.03487C12.1641 8.09551 12.0905 8.13689 12.0096 8.15306C11.9288 8.16923 11.8449 8.15936 11.77 8.12487C11.6944 8.09662 11.6291 8.04617 11.5827 7.98013C11.5363 7.9141 11.511 7.83557 11.51 7.75487C11.51 7.62226 11.4573 7.49508 11.3636 7.40131C11.2698 7.30754 11.1426 7.25487 11.01 7.25487H8.01001C7.8774 7.25487 7.75022 7.30754 7.65646 7.40131C7.56269 7.49508 7.51001 7.62226 7.51001 7.75487V20.7549C7.51001 20.8875 7.56269 21.0147 7.65646 21.1084C7.75022 21.2022 7.8774 21.2549 8.01001 21.2549H11.01C11.1426 21.2549 11.2698 21.2022 11.3636 21.1084C11.4573 21.0147 11.51 20.8875 11.51 20.7549V13.2549C11.51 12.5918 11.7734 11.9559 12.2422 11.4871C12.7111 11.0183 13.347 10.7549 14.01 10.7549C14.6731 10.7549 15.3089 11.0183 15.7778 11.4871C16.2466 11.9559 16.51 12.5918 16.51 13.2549V20.7549C16.51 20.8875 16.5627 21.0147 16.6565 21.1084C16.7502 21.2022 16.8774 21.2549 17.01 21.2549Z" fill="#0077B7"/>
</svg>
